<svg width="179" height="59" viewBox="0 0 179 59" fill="none" xmlns="http://www.w3.org/2000/svg">
<path d="M178.6 50.6C178.6 55 175.1 58.5 170.7 58.5H7.89999C3.49999 58.5 0 55 0 50.6V7.89999C0 3.49999 3.49999 0 7.89999 0H170.7C175.1 0 178.6 3.49999 178.6 7.89999V50.6Z" fill="black"/>
<path d="M13.3994 11.2998V50.8998L33.3994 31.0998L13.3994 11.2998Z" fill="url(#paint0_linear)"/>
<path d="M38.6998 25.6999L30.5998 21.0999L13.2998 11.0999V11.1999L33.2998 30.9998L38.6998 25.6999Z" fill="url(#paint1_linear)"/>
<path d="M13.3994 50.8V50.9L30.6994 40.9L38.7994 36.3L33.3994 31L13.3994 50.8Z" fill="url(#paint2_linear)"/>
<path d="M38.6998 25.7L33.2998 30.9999L38.6998 36.2999L47.8998 30.9999L38.6998 25.7Z" fill="url(#paint3_linear)"/>
<path d="M139 38.7998C138.3 38.7998 137.6 38.6998 136.9 38.3998C136.3 38.0998 135.8 37.6999 135.3 37.0999H135.2C135.3 37.7999 135.3 38.3998 135.3 38.9998V43.6999H133.6V27.0999H135L135.2 28.6999H135.3C135.7 28.0999 136.3 27.5998 136.9 27.2998C137.5 26.9998 138.2 26.8998 138.9 26.8998C140.4 26.8998 141.6 27.3998 142.4 28.4998C143.2 29.4998 143.6 30.9998 143.6 32.8998C143.6 34.7998 143.2 36.2998 142.3 37.2998C141.7 38.2998 140.5 38.7998 139 38.7998ZM138.7 28.3998C137.5 28.3998 136.7 28.6998 136.1 29.3998C135.6 30.0998 135.3 31.0998 135.3 32.4998V32.8998C135.3 34.4998 135.6 35.6998 136.1 36.3998C136.6 37.0998 137.5 37.3998 138.7 37.3998C139.7 37.3998 140.5 36.9999 141 36.1999C141.6 35.3999 141.8 34.2998 141.8 32.8998C141.8 31.4998 141.5 30.3999 141 29.5999C140.5 28.6999 139.8 28.3998 138.7 28.3998ZM147.8 38.5999H146.1V22.2998H147.8V38.5999ZM157.8 38.5999L157.5 36.9998H157.4C156.8 37.6998 156.3 38.1998 155.7 38.4998C155.1 38.7998 154.4 38.8998 153.6 38.8998C152.5 38.8998 151.6 38.5998 150.9 37.9998C150.3 37.3998 149.9 36.5998 149.9 35.4998C149.9 33.1998 151.8 31.9998 155.5 31.7998L157.5 31.6999V30.9998C157.5 30.0998 157.3 29.3998 156.9 28.9998C156.5 28.5998 155.9 28.3998 155 28.3998C154 28.3998 153 28.6998 151.7 29.2998L151.2 27.9998C151.8 27.6998 152.4 27.4998 153.1 27.2998C153.8 27.0998 154.4 26.9998 155.1 26.9998C156.5 26.9998 157.5 27.2998 158.1 27.8998C158.8 28.4998 159.1 29.4998 159.1 30.7998V38.6999H157.8V38.5999ZM153.9 37.3998C155 37.3998 155.8 37.0998 156.5 36.4998C157.1 35.8998 157.4 35.0998 157.4 33.9998V32.9998L155.7 33.0999C154.3 33.1999 153.3 33.3999 152.7 33.6999C152.1 34.0999 151.8 34.6998 151.8 35.4998C151.8 36.0998 152 36.5998 152.4 36.8998C152.7 37.1998 153.2 37.3998 153.9 37.3998ZM160.1 27.0999H162L164.5 33.6999C165.1 35.1999 165.4 36.2998 165.5 36.8998H165.6C165.7 36.4998 165.9 35.8999 166.2 35.0999C166.5 34.1999 167.4 31.5999 169 27.0999H170.9L166 40.1999C165.5 41.4999 164.9 42.3998 164.3 42.9998C163.6 43.4998 162.8 43.7998 161.9 43.7998C161.4 43.7998 160.8 43.6999 160.3 43.5999V42.1999C160.7 42.2999 161.1 42.2998 161.6 42.2998C162.8 42.2998 163.6 41.5998 164.2 40.2998L164.8 38.6999L160.1 27.0999ZM106.7 28.1999C107.3 28.6999 108.4 29.5998 108.4 31.3998C108.4 33.1998 107.4 33.9998 106.4 34.7998C106.1 35.0998 105.7 35.4998 105.7 35.9998C105.7 36.4998 106.1 36.7998 106.3 36.9998L107.2 37.6999C108.3 38.5999 109.2 39.3999 109.2 41.0999C109.2 43.3999 107 45.5999 102.9 45.5999C99.3996 45.5999 97.6996 43.8999 97.6996 42.1999C97.6996 41.2999 98.0996 40.0998 99.5996 39.2998C101.1 38.3998 103.1 38.2999 104.2 38.1999C103.9 37.7999 103.5 37.2999 103.5 36.5999C103.5 36.1999 103.6 35.9999 103.7 35.6999C103.4 35.6999 103.2 35.6999 102.9 35.6999C100.3 35.6999 98.8996 33.7998 98.8996 31.8998C98.8996 30.7998 99.3996 29.5999 100.4 28.6999C101.8 27.5999 103.4 27.3998 104.7 27.3998H109.7L108.2 28.2998H106.7V28.1999ZM105 38.7998C104.8 38.7998 104.7 38.7998 104.4 38.7998C104.2 38.7998 102.9 38.7999 101.9 39.1999C101.4 39.3999 99.7996 39.9999 99.7996 41.6999C99.7996 43.3999 101.5 44.5999 104 44.5999C106.3 44.5999 107.5 43.4998 107.5 41.9998C107.6 40.7998 106.8 40.0998 105 38.7998ZM105.7 34.2998C106.3 33.6998 106.3 32.9998 106.3 32.4998C106.3 30.7998 105.3 28.0999 103.3 28.0999C102.7 28.0999 102 28.3998 101.6 28.8998C101.2 29.3998 101.1 30.0999 101.1 30.6999C101.1 32.2999 102 34.9998 104.1 34.9998C104.7 34.8998 105.3 34.5998 105.7 34.2998ZM91.5996 38.4998C87.7996 38.4998 85.6996 35.4998 85.6996 32.7998C85.6996 29.6998 88.2996 26.9998 91.8996 26.9998C95.3996 26.9998 97.5996 29.7999 97.5996 32.6999C97.6996 35.3999 95.4996 38.4998 91.5996 38.4998ZM94.5996 36.4998C95.1996 35.6998 95.2996 34.7998 95.2996 33.7998C95.2996 31.6998 94.2996 27.6999 91.2996 27.6999C90.4996 27.6999 89.6996 27.9998 89.0996 28.4998C88.1996 29.2998 87.9996 30.3998 87.9996 31.3998C87.9996 33.7998 89.1996 37.6999 92.0996 37.6999C92.9996 37.6999 93.9996 37.2998 94.5996 36.4998ZM78.4996 38.4998C74.6996 38.4998 72.5996 35.4998 72.5996 32.7998C72.5996 29.6998 75.1996 26.9998 78.7996 26.9998C82.2996 26.9998 84.4996 29.7999 84.4996 32.6999C84.5996 35.3999 82.3996 38.4998 78.4996 38.4998ZM81.4996 36.4998C82.0996 35.6998 82.1996 34.7998 82.1996 33.7998C82.1996 31.6998 81.1996 27.6999 78.1996 27.6999C77.3996 27.6999 76.5996 27.9998 75.9996 28.4998C75.0996 29.2998 74.8996 30.3998 74.8996 31.3998C74.8996 33.7998 76.0996 37.6999 78.9996 37.6999C79.9996 37.6999 80.9996 37.2998 81.4996 36.4998ZM70.7996 38.0999L67.2996 38.8998C65.8996 39.0998 64.5996 39.2998 63.2996 39.2998C56.5996 39.2998 54.0996 34.3999 54.0996 30.5999C54.0996 25.8999 57.6996 21.5999 63.8996 21.5999C65.1996 21.5999 66.4996 21.7999 67.5996 22.0999C69.3996 22.5999 70.2996 23.1999 70.7996 23.5999L68.7996 25.4998L67.9996 25.6999L68.5996 24.6999C67.7996 23.8999 66.2996 22.3998 63.3996 22.3998C59.5996 22.3998 56.6996 25.2998 56.6996 29.4998C56.6996 33.9998 59.9996 38.2998 65.2996 38.2998C66.7996 38.2998 67.5996 37.9999 68.3996 37.6999V33.7998L64.7996 33.9998L66.6996 32.9998H71.7996L71.1996 33.5999C70.9996 33.6999 70.9996 33.7998 70.9996 33.9998C70.9996 34.1998 70.9996 34.8999 70.9996 35.1999V38.0999H70.7996Z" fill="#F7F7F7"/>
<path d="M114.3 37.3999C113.5 37.2999 113.3 37.1999 113.3 36.1999V22.4999C113.3 22.3999 113.3 22.3999 113.3 22.2999C113.4 21.4999 113.6 21.2999 114.4 20.8999H110.9L109.1 21.7999H110.9V36.6999C110.9 37.1999 110.8 37.2999 110.2 37.9999H114.5L115.6 37.4999C115.2 37.4999 114.8 37.3999 114.3 37.3999ZM124.2 37.5999C123.9 37.6999 123.7 37.8999 123.4 37.9999C122.6 38.3999 121.8 38.4999 121.1 38.4999C120.3 38.4999 119.1 38.3999 117.9 37.5999C116.2 36.3999 115.5 34.2999 115.5 32.4999C115.5 28.7999 118.5 26.9999 121 26.9999C121.9 26.9999 122.8 27.1999 123.5 27.6999C124.7 28.4999 125 29.4999 125.2 30.0999L119.6 32.3999L117.8 32.4999C118.4 35.4999 120.5 37.2999 122.7 37.2999C123.9 37.2999 124.8 36.8999 125.6 36.4999L124.2 37.5999ZM121.9 30.3999C122.4 30.1999 122.6 30.0999 122.6 29.7999C122.6 28.7999 121.5 27.6999 120.2 27.6999C119.2 27.6999 117.4 28.3999 117.4 30.9999C117.4 31.3999 117.4 31.7999 117.5 32.2999L121.9 30.3999ZM126.5 27.0999V28.6999H126.3V27.0999H125.8V26.8999H127V27.0999H126.5ZM128.6 28.6999V27.0999L128.1 28.6999H127.9L127.4 27.0999V28.6999H127.2V26.9999H127.5L127.9 28.3999L128.3 26.9999H128.6V28.6999Z" fill="#F7F7F7"/>
<path d="M58.9998 16.7998H57.7998C57.7998 16.5998 57.6998 16.1998 57.4998 15.3998H55.7998C55.5998 16.1998 55.3998 16.5998 55.3998 16.7998H54.2998C54.2998 16.6998 54.5998 15.8998 55.1998 14.3998C55.7998 12.8998 56.0998 12.0998 56.0998 11.8998H57.4998C57.4998 11.9998 57.7998 12.8998 58.2998 14.2998C58.6998 15.8998 58.9998 16.6998 58.9998 16.7998ZM57.2998 14.6998C56.8998 13.3998 56.6998 12.6998 56.6998 12.5998H56.5998C56.5998 12.6998 56.3998 13.3998 55.8998 14.6998H57.2998ZM63.7998 16.7998H62.8998C62.8998 16.6998 62.5998 16.1998 61.8998 15.1998C61.1998 14.1998 60.7998 13.4998 60.6998 13.0998H60.5998C60.6998 13.5998 60.6998 14.0998 60.6998 14.5998C60.6998 15.1998 60.6998 15.9998 60.7998 16.8998H59.8998C59.8998 16.0998 59.9998 15.2998 59.9998 14.2998C59.9998 13.3998 59.9998 12.5998 59.8998 11.9998H60.9998C60.9998 12.0998 61.2998 12.6998 61.8998 13.5998C62.5998 14.5998 62.8998 15.2998 62.9998 15.5998H63.0998C62.9998 14.9998 62.9998 14.4998 62.9998 14.0998C62.9998 13.3998 62.9998 12.6998 62.8998 11.9998H63.7998C63.7998 12.5998 63.6998 13.3998 63.6998 14.2998C63.7998 15.1998 63.7998 15.9998 63.7998 16.7998ZM69.2998 14.1998C69.2998 14.8998 69.0998 15.4998 68.5998 16.0998C68.0998 16.5998 67.4998 16.8998 66.6998 16.8998C66.2998 16.8998 65.7998 16.8998 65.1998 16.8998C65.1998 16.0998 65.1998 15.2998 65.1998 14.2998C65.1998 13.3998 65.1998 12.5998 65.1998 11.9998H65.8998C65.9998 11.9998 66.1998 11.9998 66.3998 11.9998C66.5998 11.9998 66.7998 11.9998 66.7998 11.9998C67.6998 11.9998 68.3998 12.1998 68.7998 12.6998C69.0998 12.9998 69.2998 13.5998 69.2998 14.1998ZM68.1998 14.3998C68.1998 13.8998 68.0998 13.4998 67.7998 13.1998C67.4998 12.8998 67.0998 12.6998 66.4998 12.6998C66.3998 12.6998 66.1998 12.6998 66.0998 12.6998C66.0998 13.1998 66.0998 13.6998 66.0998 14.2998C66.0998 14.8998 66.0998 15.4998 66.0998 16.0998C66.2998 16.0998 66.3998 16.0998 66.5998 16.0998C67.0998 16.0998 67.4998 15.8998 67.7998 15.5998C68.0998 15.1998 68.1998 14.7998 68.1998 14.3998ZM74.2998 16.7998H73.1998C72.8998 15.8998 72.6998 15.3998 72.4998 15.1998C72.2998 14.9998 72.0998 14.8998 71.6998 14.8998C71.5998 14.8998 71.3998 14.8998 71.2998 14.8998C71.2998 15.4998 71.2998 16.1998 71.2998 16.7998H70.2998C70.2998 15.9998 70.2998 15.1998 70.2998 14.1998C70.2998 13.2998 70.2998 12.4998 70.2998 11.8998H70.8998C70.9998 11.8998 71.0998 11.8998 71.3998 11.8998C71.5998 11.8998 71.8998 11.8998 72.0998 11.8998C73.1998 11.8998 73.7998 12.2998 73.7998 13.0998C73.7998 13.6998 73.4998 14.1998 72.7998 14.3998V14.4998C73.0998 14.5998 73.2998 14.7998 73.4998 15.0998C73.6998 15.2998 73.8998 15.8998 74.2998 16.7998ZM72.8998 13.3998C72.8998 12.8998 72.5998 12.6998 71.8998 12.6998C71.6998 12.6998 71.4998 12.6998 71.2998 12.7998C71.2998 13.1998 71.2998 13.6998 71.2998 14.2998C71.3998 14.2998 71.5998 14.2998 71.6998 14.2998C72.4998 14.1998 72.8998 13.8998 72.8998 13.3998ZM79.5998 14.2998C79.5998 15.0998 79.3998 15.6998 78.8998 16.1998C78.3998 16.6998 77.7998 16.9998 77.1998 16.9998C76.4998 16.9998 75.9998 16.7998 75.4998 16.2998C75.0998 15.7998 74.7998 15.1998 74.7998 14.4998C74.7998 13.6998 74.9998 13.0998 75.4998 12.5998C75.9998 12.0998 76.5998 11.7998 77.1998 11.7998C77.8998 11.7998 78.3998 11.9998 78.8998 12.4998C79.3998 12.9998 79.5998 13.5998 79.5998 14.2998ZM78.5998 14.3998C78.5998 13.8998 78.4998 13.4998 78.1998 13.0998C77.8998 12.7998 77.5998 12.5998 77.1998 12.5998C76.7998 12.5998 76.4998 12.7998 76.2998 13.0998C75.9998 13.3998 75.8998 13.7998 75.8998 14.2998C75.8998 14.7998 75.9998 15.1998 76.2998 15.5998C76.5998 15.8998 76.8998 16.0998 77.2998 16.0998C77.6998 16.0998 77.9998 15.8998 78.1998 15.5998C78.4998 15.2998 78.5998 14.8998 78.5998 14.3998ZM81.7998 16.7998H80.6998C80.6998 15.9998 80.7998 15.1998 80.7998 14.1998C80.7998 13.2998 80.7998 12.4998 80.6998 11.8998H81.7998C81.7998 12.4998 81.7998 13.2998 81.7998 14.1998C81.6998 15.1998 81.6998 15.9998 81.7998 16.7998ZM87.1998 14.1998C87.1998 14.8998 86.9998 15.4998 86.4998 16.0998C85.9998 16.5998 85.3998 16.8998 84.5998 16.8998C84.1998 16.8998 83.6998 16.8998 83.0998 16.8998C83.0998 16.0998 83.0998 15.2998 83.0998 14.2998C83.0998 13.3998 83.0998 12.5998 83.0998 11.9998H83.7998C83.8998 11.9998 84.0998 11.9998 84.2998 11.9998C84.4998 11.9998 84.5998 11.9998 84.6998 11.9998C85.5998 11.9998 86.2998 12.1998 86.6998 12.6998C86.9998 12.9998 87.1998 13.5998 87.1998 14.1998ZM86.1998 14.3998C86.1998 13.8998 86.0998 13.4998 85.7998 13.1998C85.4998 12.8998 85.0998 12.6998 84.4998 12.6998C84.3998 12.6998 84.1998 12.6998 84.0998 12.6998C84.0998 13.1998 84.0998 13.6998 84.0998 14.2998C84.0998 14.8998 84.0998 15.4998 84.0998 16.0998C84.2998 16.0998 84.3998 16.0998 84.5998 16.0998C85.0998 16.0998 85.4998 15.8998 85.7998 15.5998C86.0998 15.1998 86.1998 14.7998 86.1998 14.3998ZM94.3998 16.7998H93.1998C93.1998 16.5998 93.0998 16.1998 92.8998 15.3998H91.1998C90.9998 16.1998 90.7998 16.5998 90.7998 16.7998H89.6998C89.6998 16.6998 89.9998 15.8998 90.5998 14.3998C91.1998 12.8998 91.4998 12.0998 91.4998 11.8998H92.8998C92.8998 11.9998 93.1998 12.8998 93.6998 14.2998C94.1998 15.8998 94.3998 16.6998 94.3998 16.7998ZM92.6998 14.6998C92.2998 13.3998 92.0998 12.6998 92.0998 12.5998H91.9998C91.9998 12.6998 91.7998 13.3998 91.2998 14.6998H92.6998ZM98.7998 13.1998C98.7998 13.7998 98.5998 14.1998 98.0998 14.4998C97.6998 14.7998 97.0998 14.8998 96.4998 14.8998C96.3998 14.8998 96.2998 14.8998 96.1998 14.8998C96.1998 15.3998 96.1998 15.9998 96.1998 16.7998H95.0998C95.0998 16.0998 95.0998 15.1998 95.0998 14.1998C95.0998 13.2998 95.0998 12.4998 95.0998 11.8998H95.7998C95.8998 11.8998 96.0998 11.8998 96.2998 11.8998C96.5998 11.8998 96.7998 11.8998 96.9998 11.8998C97.4998 11.8998 97.8998 11.9998 98.1998 12.1998C98.5998 12.3998 98.7998 12.7998 98.7998 13.1998ZM97.7998 13.3998C97.7998 12.8998 97.3998 12.5998 96.6998 12.5998C96.4998 12.5998 96.2998 12.5998 96.0998 12.6998C96.0998 13.1998 96.0998 13.6998 96.0998 14.2998C96.1998 14.2998 96.1998 14.2998 96.2998 14.2998C97.3998 14.2998 97.7998 13.9998 97.7998 13.3998ZM103.3 13.1998C103.3 13.7998 103.1 14.1998 102.6 14.4998C102.2 14.7998 101.6 14.8998 101 14.8998C100.9 14.8998 100.8 14.8998 100.7 14.8998C100.7 15.3998 100.7 15.9998 100.7 16.7998H99.5998C99.5998 16.0998 99.5998 15.1998 99.5998 14.1998C99.5998 13.2998 99.5998 12.4998 99.5998 11.8998H100.3C100.4 11.8998 100.6 11.8998 100.8 11.8998C101.1 11.8998 101.3 11.8998 101.5 11.8998C102 11.8998 102.4 11.9998 102.7 12.1998C103.1 12.3998 103.3 12.7998 103.3 13.1998ZM102.3 13.3998C102.3 12.8998 101.9 12.5998 101.2 12.5998C101 12.5998 100.8 12.5998 100.6 12.6998C100.6 13.1998 100.6 13.6998 100.6 14.2998C100.7 14.2998 100.7 14.2998 100.8 14.2998C101.9 14.2998 102.3 13.9998 102.3 13.3998ZM110.6 14.2998C110.6 15.0998 110.4 15.6998 109.9 16.1998C109.4 16.6998 108.8 16.9998 108.2 16.9998C107.5 16.9998 107 16.7998 106.5 16.2998C106.1 15.7998 105.8 15.1998 105.8 14.4998C105.8 13.6998 106 13.0998 106.5 12.5998C107 12.0998 107.6 11.7998 108.2 11.7998C108.9 11.7998 109.4 11.9998 109.9 12.4998C110.4 12.9998 110.6 13.5998 110.6 14.2998ZM109.6 14.3998C109.6 13.8998 109.5 13.4998 109.2 13.0998C108.9 12.7998 108.6 12.5998 108.2 12.5998C107.8 12.5998 107.5 12.7998 107.3 13.0998C107 13.3998 106.9 13.7998 106.9 14.2998C106.9 14.7998 107 15.1998 107.3 15.5998C107.6 15.8998 107.9 16.0998 108.3 16.0998C108.7 16.0998 109 15.8998 109.2 15.5998C109.5 15.2998 109.6 14.8998 109.6 14.3998ZM115.7 16.7998H114.8C114.8 16.6998 114.5 16.1998 113.8 15.1998C113.1 14.1998 112.7 13.4998 112.6 13.0998H112.5C112.6 13.5998 112.6 14.0998 112.6 14.5998C112.6 15.1998 112.6 15.9998 112.7 16.8998H111.8C111.8 16.0998 111.9 15.2998 111.9 14.2998C111.9 13.3998 111.9 12.5998 111.8 11.9998H112.9C112.9 12.0998 113.2 12.6998 113.8 13.5998C114.5 14.5998 114.8 15.2998 114.9 15.5998H115C114.9 14.9998 114.9 14.4998 114.9 14.0998C114.9 13.3998 114.9 12.6998 114.9 11.9998H115.8C115.8 12.5998 115.7 13.3998 115.7 14.2998C115.7 15.1998 115.7 15.9998 115.7 16.7998Z" fill="#F7F7F8"/>
<defs>
<linearGradient id="paint0_linear" x1="23.3624" y1="11.2838" x2="23.3624" y2="50.8438" gradientUnits="userSpaceOnUse">
<stop stop-color="#267CAE"/>
<stop offset="0.286" stop-color="#4B91B3"/>
<stop offset="0.767" stop-color="#77BAB9"/>
<stop offset="1" stop-color="#87CDBB"/>
</linearGradient>
<linearGradient id="paint1_linear" x1="13.3868" y1="21.0989" x2="38.6938" y2="21.0989" gradientUnits="userSpaceOnUse">
<stop stop-color="#52BFAA"/>
<stop offset="1" stop-color="#DCE698"/>
</linearGradient>
<linearGradient id="paint2_linear" x1="26.0394" y1="31.066" x2="26.0394" y2="50.991" gradientUnits="userSpaceOnUse">
<stop stop-color="#EA413E"/>
<stop offset="0.167" stop-color="#D84452"/>
<stop offset="0.575" stop-color="#AE487A"/>
<stop offset="0.862" stop-color="#924A90"/>
<stop offset="1" stop-color="#884A9B"/>
</linearGradient>
<linearGradient id="paint3_linear" x1="40.6188" y1="25.749" x2="40.6188" y2="36.3769" gradientUnits="userSpaceOnUse">
<stop stop-color="#F3867A"/>
<stop offset="0.119" stop-color="#F48E79"/>
<stop offset="0.713" stop-color="#FAB676"/>
<stop offset="1" stop-color="#FCC674"/>
</linearGradient>
</defs>
</svg>
