<svg width="178" height="59" viewBox="0 0 206 59" fill="none" xmlns="http://www.w3.org/2000/svg">
<path d="M205.2 53C205.2 56.3 202.6 58.9 199.3 58.9H5.89999C2.69999 58.9 0 56.2 0 53V5.89999C0 2.59999 2.69999 0 5.89999 0H199.2C202.5 0 205.1 2.59999 205.1 5.89999L205.2 53Z" fill="white"/>
<path d="M205.2 53C205.2 56.3 202.6 58.9 199.3 58.9H5.89999C2.69999 58.9 0 56.2 0 53V5.89999C0 2.59999 2.69999 0 5.89999 0H199.2C202.5 0 205.1 2.59999 205.1 5.89999L205.2 53Z" fill="black"/>
<path d="M45.0996 29.0999C45.0996 24.0999 49.1996 21.6999 49.3996 21.5999C47.0996 18.1999 43.4996 17.7 42.1996 17.7C39.1996 17.4 36.1996 19.4999 34.6996 19.4999C33.0996 19.4999 30.6996 17.6999 28.1996 17.7999C24.8996 17.8999 21.7996 19.8 20.0996 22.7C16.5996 28.7 19.1996 37.5999 22.5996 42.4999C24.2996 44.8999 26.1996 47.5999 28.7996 47.4999C31.2996 47.3999 32.1996 45.8999 35.2996 45.8999C38.2996 45.8999 39.1996 47.4999 41.7996 47.3999C44.4996 47.3999 46.1996 44.9999 47.7996 42.5999C49.6996 39.8999 50.4996 37.1999 50.4996 36.9999C50.2996 36.9999 45.0996 35.0999 45.0996 29.0999ZM40.0996 14.4999C41.3996 12.7999 42.3996 10.5 42.0996 8.19995C40.1996 8.29995 37.6996 9.59995 36.2996 11.2C35.0996 12.7 33.8996 14.9999 34.1996 17.2999C36.4996 17.3999 38.6996 16.1999 40.0996 14.4999Z" fill="white"/>
<path d="M81.3 47.2H77.8L75.9 41.2H69.2L67.4 47.2H64L70.6 26.7H74.7L81.3 47.2ZM75.3 38.6L73.6 33.2C73.4 32.7 73.1 31.4 72.6 29.3H72.5C72.3 30.2 72 31.5 71.5 33.2L69.8 38.6H75.3ZM98.3 39.6C98.3 42.1 97.6 44.1 96.2 45.6C95 46.9 93.5 47.5 91.6 47.5C89.6 47.5 88.2 46.8 87.4 45.4V53.2H84.1V37.2C84.1 35.6 84.1 34 84 32.3H86.9L87.1 34.6H87.2C88.3 32.8 90 32 92.2 32C93.9 32 95.4 32.7 96.6 34.1C97.7 35.5 98.3 37.3 98.3 39.6ZM94.9 39.7C94.9 38.3 94.6 37.1 93.9 36.1C93.2 35.1 92.2 34.6 91 34.6C90.2 34.6 89.5 34.9 88.8 35.4C88.1 35.9 87.7 36.6 87.5 37.5C87.4 37.8 87.4 38.2 87.3 38.5V41C87.3 42.1 87.6 43 88.3 43.7C89 44.4 89.8 44.8 90.9 44.8C92.1 44.8 93.1 44.3 93.8 43.4C94.6 42.5 94.9 41.3 94.9 39.7ZM115.3 39.6C115.3 42.1 114.6 44.1 113.2 45.6C112 46.9 110.5 47.5 108.6 47.5C106.6 47.5 105.2 46.8 104.4 45.4V53.2H101.1V37.2C101.1 35.6 101.1 34 101 32.3H103.9L104.1 34.6H104.2C105.3 32.8 107 32 109.2 32C110.9 32 112.4 32.7 113.6 34.1C114.7 35.5 115.3 37.3 115.3 39.6ZM111.9 39.7C111.9 38.3 111.6 37.1 110.9 36.1C110.2 35.1 109.2 34.6 108 34.6C107.2 34.6 106.5 34.9 105.8 35.4C105.1 35.9 104.7 36.6 104.5 37.5C104.4 37.9 104.3 38.2 104.3 38.5V41C104.3 42.1 104.6 43 105.3 43.7C106 44.4 106.8 44.8 107.9 44.8C109.1 44.8 110.1 44.3 110.8 43.4C111.6 42.5 111.9 41.3 111.9 39.7ZM134.3 41.4C134.3 43.1 133.7 44.6 132.5 45.7C131.2 46.9 129.3 47.5 126.9 47.5C124.7 47.5 122.9 47.1 121.6 46.2L122.4 43.5C123.8 44.4 125.4 44.8 127.1 44.8C128.3 44.8 129.3 44.5 130 44C130.7 43.4 131 42.7 131 41.8C131 41 130.7 40.3 130.1 39.7C129.5 39.1 128.6 38.6 127.3 38.1C123.7 36.8 121.9 34.8 121.9 32.2C121.9 30.5 122.5 29.1 123.8 28.1C125.1 27 126.7 26.5 128.8 26.5C130.7 26.5 132.2 26.8 133.5 27.5L132.7 30.2C131.5 29.6 130.2 29.3 128.8 29.3C127.6 29.3 126.7 29.6 126.1 30.2C125.6 30.7 125.3 31.3 125.3 32.1C125.3 32.9 125.6 33.6 126.2 34.1C126.7 34.6 127.7 35.1 129.2 35.7C131 36.4 132.3 37.2 133.1 38.2C133.9 38.8 134.3 40 134.3 41.4ZM145.2 34.8H141.6V42C141.6 43.8 142.2 44.7 143.5 44.7C144.1 44.7 144.6 44.7 145 44.5L145.1 47C144.5 47.2 143.6 47.4 142.5 47.4C141.2 47.4 140.2 47 139.5 46.2C138.8 45.4 138.4 44.1 138.4 42.2V34.7H136.2V32.2H138.4V29.5L141.6 28.5V32.2H145.2V34.8ZM161.5 39.6C161.5 41.9 160.9 43.7 159.6 45.2C158.2 46.7 156.4 47.5 154.2 47.5C152 47.5 150.3 46.8 149 45.3C147.7 43.9 147.1 42 147.1 39.9C147.1 37.6 147.8 35.7 149.1 34.3C150.4 32.8 152.2 32.1 154.5 32.1C156.7 32.1 158.4 32.8 159.7 34.3C160.9 35.6 161.5 37.4 161.5 39.6ZM158.1 39.7C158.1 38.3 157.8 37.2 157.2 36.2C156.5 35 155.5 34.4 154.2 34.4C152.9 34.4 151.9 35 151.2 36.2C150.6 37.2 150.3 38.4 150.3 39.8C150.3 41.2 150.6 42.3 151.2 43.3C151.9 44.5 152.9 45.1 154.2 45.1C155.5 45.1 156.4 44.5 157.2 43.3C157.8 42.3 158.1 41.1 158.1 39.7ZM172.2 35.3C171.9 35.2 171.5 35.2 171.2 35.2C170 35.2 169.2 35.6 168.5 36.5C168 37.3 167.7 38.2 167.7 39.4V47.2H164.4V37C164.4 35.4 164.4 33.9 164.3 32.3H167.2L167.3 35.1H167.4C167.7 34.1 168.3 33.3 169 32.8C169.7 32.3 170.5 32 171.4 32C171.7 32 172 32 172.2 32.1V35.3ZM186.9 39.1C186.9 39.6 186.9 40.1 186.8 40.6H176.9C176.9 42.1 177.4 43.2 178.3 43.9C179.1 44.6 180.2 44.9 181.5 44.9C183 44.9 184.3 44.7 185.5 44.2L186 46.5C184.6 47.1 182.9 47.4 181 47.4C178.7 47.4 176.9 46.7 175.6 45.4C174.3 44.1 173.6 42.2 173.6 40C173.6 37.8 174.2 35.9 175.4 34.4C176.7 32.8 178.4 32 180.6 32C182.7 32 184.3 32.8 185.4 34.4C186.4 35.7 186.9 37.2 186.9 39.1ZM183.7 38.2C183.7 37.2 183.5 36.4 183.1 35.7C182.5 34.8 181.7 34.3 180.5 34.3C179.4 34.3 178.5 34.7 177.9 35.6C177.4 36.3 177 37.2 176.9 38.2H183.7Z" fill="white"/>
<path d="M68.3004 19.3999C67.4004 19.3999 66.6004 19.3999 65.9004 19.2999V9.39993C66.8004 9.29993 67.7004 9.19995 68.7004 9.19995C72.5004 9.19995 74.2004 11.0999 74.2004 14.0999C74.2004 17.4999 72.2004 19.3999 68.3004 19.3999ZM68.9004 10.3999C68.4004 10.3999 68.0004 10.3999 67.6004 10.4999V17.9999C67.8004 17.9999 68.2004 17.9999 68.7004 17.9999C71.2004 17.9999 72.6004 16.5999 72.6004 13.9999C72.5004 11.6999 71.2004 10.3999 68.9004 10.3999ZM79.6004 19.4999C77.5004 19.4999 76.1004 17.8999 76.1004 15.7999C76.1004 13.5999 77.5004 11.9999 79.7004 11.9999C81.8004 11.9999 83.2004 13.5 83.2004 15.7C83.2004 17.9 81.8004 19.4999 79.6004 19.4999ZM79.7004 13.0999C78.5004 13.0999 77.8004 14.2 77.8004 15.7C77.8004 17.2 78.6004 18.2999 79.7004 18.2999C80.8004 18.2999 81.6004 17.1 81.6004 15.7C81.6004 14.2 80.8004 13.0999 79.7004 13.0999ZM95.4004 12.0999L93.1004 19.3999H91.6004L90.7004 16.2C90.5004 15.4 90.3004 14.5999 90.1004 13.8999C90.0004 14.6999 89.8004 15.5 89.5004 16.2L88.5004 19.3999H87.0004L84.9004 12.0999H86.6004L87.4004 15.5999C87.6004 16.3999 87.8004 17.1999 87.9004 17.8999C88.0004 17.2999 88.2004 16.4999 88.5004 15.5999L89.5004 12.0999H90.8004L91.8004 15.4999C92.0004 16.2999 92.2004 17.0999 92.4004 17.8999C92.5004 17.1999 92.7004 16.3999 92.9004 15.4999L93.8004 12.0999H95.4004ZM103.7 19.2999H102.1V15.0999C102.1 13.7999 101.6 13.2 100.6 13.2C99.6004 13.2 99.0004 13.9999 99.0004 14.9999V19.2999H97.4004V14.0999C97.4004 13.4999 97.4004 12.7999 97.3004 11.9999H98.7004L98.8004 13.0999C99.2004 12.2999 100.1 11.7999 101.1 11.7999C102.6 11.7999 103.6 12.9999 103.6 14.8999L103.7 19.2999ZM108.2 19.2999H106.6V8.69995H108.2V19.2999ZM114.1 19.4999C112 19.4999 110.6 17.8999 110.6 15.7999C110.6 13.5999 112 11.9999 114.2 11.9999C116.3 11.9999 117.7 13.5 117.7 15.7C117.7 17.9 116.2 19.4999 114.1 19.4999ZM114.1 13.0999C112.9 13.0999 112.2 14.2 112.2 15.7C112.2 17.2 113 18.2999 114.1 18.2999C115.2 18.2999 116 17.1 116 15.7C116 14.2 115.3 13.0999 114.1 13.0999ZM124.1 19.2999L124 18.4999C123.5 19.1999 122.8 19.4999 121.9 19.4999C120.6 19.4999 119.7 18.5999 119.7 17.3999C119.7 15.5999 121.3 14.7 123.9 14.7V14.5999C123.9 13.5999 123.4 13.2 122.4 13.2C121.7 13.2 121.1 13.4 120.5 13.7L120.2 12.5999C120.9 12.1999 121.7 11.9999 122.7 11.9999C124.6 11.9999 125.6 12.9999 125.6 14.9999V17.7C125.6 18.4 125.6 18.9999 125.7 19.3999L124.1 19.2999ZM123.8 15.7C122 15.7 121.1 16.1 121.1 17.2C121.1 18 121.6 18.2999 122.2 18.2999C123 18.2999 123.8 17.6999 123.8 16.7999V15.7ZM133.2 19.2999L133.1 18.0999C132.6 18.9999 131.9 19.3999 130.8 19.3999C129 19.3999 127.8 17.9 127.8 15.7C127.8 13.4 129.1 11.7999 131 11.7999C132 11.7999 132.7 12.0999 133 12.7999V8.69995H134.6V17.2999C134.6 17.9999 134.6 18.6999 134.7 19.2999H133.2ZM133 14.9999C133 13.9999 132.3 13.0999 131.3 13.0999C130.1 13.0999 129.4 14.2 129.4 15.7C129.4 17.2 130.2 18.2 131.3 18.2C132.3 18.2 133 17.2999 133 16.2999V14.9999ZM144.9 19.4999C142.8 19.4999 141.4 17.8999 141.4 15.7999C141.4 13.5999 142.8 11.9999 145 11.9999C147.1 11.9999 148.5 13.5 148.5 15.7C148.5 17.9 147 19.4999 144.9 19.4999ZM144.9 13.0999C143.7 13.0999 143 14.2 143 15.7C143 17.2 143.8 18.2999 144.9 18.2999C146 18.2999 146.8 17.1 146.8 15.7C146.8 14.2 146.1 13.0999 144.9 13.0999ZM157.2 19.2999H155.6V15.0999C155.6 13.7999 155.1 13.2 154.1 13.2C153.1 13.2 152.5 13.9999 152.5 14.9999V19.2999H150.9V14.0999C150.9 13.4999 150.9 12.7999 150.8 11.9999H152.2L152.3 13.0999C152.7 12.2999 153.6 11.7999 154.6 11.7999C156.1 11.7999 157.1 12.9999 157.1 14.8999V19.2999H157.2ZM168 13.2999H166.2V16.7999C166.2 17.6999 166.5 18.0999 167.1 18.0999C167.4 18.0999 167.6 18.0999 167.8 17.9999V19.2C167.5 19.3 167.1 19.3999 166.5 19.3999C165.2 19.3999 164.5 18.6999 164.5 16.8999V13.2H163.4V11.9999H164.5V10.7L166.1 10.2V11.9999H167.9V13.2999H168ZM176.6 19.2999H175V15.2C175 13.9 174.5 13.2 173.5 13.2C172.7 13.2 171.9 13.7999 171.9 14.8999V19.2999H170.3V8.69995H171.9V13.0999C172.4 12.2999 173.1 11.8999 174.1 11.8999C175.6 11.8999 176.6 13.0999 176.6 14.9999V19.2999ZM185.4 16.0999H180.6C180.6 17.4999 181.5 18.2999 182.9 18.2999C183.6 18.2999 184.3 18.1999 184.9 17.9999L185 18.9999C184.3 19.2999 183.5 19.3999 182.6 19.3999C180.3 19.3999 179 18 179 15.7C179 13.5 180.4 11.7999 182.4 11.7999C184.3 11.7999 185.4 13.1999 185.4 15.2999C185.4 15.5999 185.4 15.7999 185.4 16.0999ZM183.9 14.8999C183.9 13.7999 183.3 12.9999 182.3 12.9999C181.4 12.9999 180.6 13.7999 180.5 14.8999H183.9Z" fill="white"/>
</svg>
