<svg width="50" height="51" viewBox="0 0 50 51" fill="none" xmlns="http://www.w3.org/2000/svg">
<circle cx="25" cy="25.0403" r="25" fill="#E1F1EE"/>
<g clip-path="url(#clip0)">
<path d="M25.9 38.0403C23.6 38.0403 21.6 36.8403 21.1 35.2403H22.1C22.5 35.2403 22.8 34.9403 22.8 34.5403V31.5403C23.8 32.0403 24.9 32.3403 26 32.3403C27.1 32.3403 28.2 32.0403 29.2 31.5403V34.5403C29.2 34.9403 29.5 35.2403 29.9 35.2403H30.8C30.2 36.7403 28.2 38.0403 25.9 38.0403ZM19.6 25.2403L19.2 20.7403C19.2 20.5403 19.2 20.2403 19.2 19.9403C19.2 16.3403 22.1 13.3403 25.6 13.3403C29.1 13.3403 32 16.2403 32 19.9403C32 20.2403 32 20.4403 32 20.7403L31.6 25.2403C31.3 28.3403 28.8 30.7403 25.7 30.7403C22.4 30.7403 19.9 28.4403 19.6 25.2403ZM32.8 33.3403H30V30.5403C31.5 29.3403 32.5 27.5403 32.7 25.4403L33.1 20.9403C33.1 20.6403 33.2 20.3403 33.2 20.0403C33.2 15.6403 29.7 12.0403 25.4 12.0403C21.1 12.0403 17.6 15.6403 17.6 20.0403C17.6 20.3403 17.6 20.6403 17.7 20.9403L18.1 25.3403C18.3 27.4403 19.3 29.2403 20.8 30.4403V33.2403H18.5C13.3 33.7403 9 38.1403 9 43.5403C9 43.9403 9.3 44.2403 9.7 44.2403C10.1 44.2403 10.4 43.9403 10.4 43.5403C10.4 38.9403 14 35.2403 18.5 35.2403H19.2C19.6 37.5403 22.3 39.4403 25.5 39.4403C28.7 39.4403 31.3 37.6403 31.8 35.2403H32.6C37.1 35.2403 40.7 38.9403 40.7 43.5403C40.7 43.9403 41 44.2403 41.4 44.2403C41.8 44.2403 42.1 43.9403 42.1 43.5403C42.1 38.1403 37.8 33.7403 32.6 33.7403" fill="#00A4FE"/>
</g>
<defs>
<clipPath id="clip0">
<rect x="9" y="12.0403" width="32.9" height="32.2" fill="white"/>
</clipPath>
</defs>
</svg>
