<svg width="653" height="468" viewBox="0 0 653 468" fill="none" xmlns="http://www.w3.org/2000/svg">
<path d="M584.892 141.843H382.306C345.728 109.237 308.074 125.209 277.786 134.064C246.752 143.085 248.076 119.83 248.076 114.617C248.076 109.403 257.097 86.1487 235.167 71.9147C201.65 50.2327 158.866 96.4931 149.845 104.272C140.825 112.051 111.364 90.2864 94.2336 84.9073C69.7379 77.1283 28.3601 75.8042 7.67116 114.617C-14.6729 156.574 17.4363 201.841 32.3323 216.737C37.3804 221.785 39.6976 226.751 41.4355 231.054V441.75C41.4355 455.653 52.5247 467.156 66.4277 467.156H584.892C598.795 467.156 610.05 455.653 610.05 441.75V167.001C610.05 153.015 598.795 141.843 584.892 141.843Z" fill="url(#paint0_linear)"/>
<g clip-path="url(#clip0)">
<path d="M373.286 31.0334C373.286 48.1638 359.383 62.0668 342.252 62.0668C325.039 62.1495 311.136 48.2466 311.136 31.0334C311.136 13.903 325.039 0 342.17 0C359.383 0 373.286 13.903 373.286 31.0334Z" fill="url(#paint1_linear)"/>
<path d="M365.258 22.6751C364.596 22.6751 363.934 22.344 363.686 21.682C357.314 8.68935 345.397 7.28251 344.901 7.19975C343.907 7.117 343.163 6.20668 343.328 5.21362C343.411 4.22055 344.321 3.47575 345.314 3.64126C345.894 3.72401 359.631 5.29637 366.914 20.0269C367.327 20.9372 366.996 22.013 366.086 22.4268C365.838 22.5923 365.589 22.6751 365.258 22.6751Z" fill="white"/>
<path d="M370.058 29.461C370.058 31.0334 368.817 32.2747 367.245 32.2747C365.672 32.2747 364.431 31.0334 364.431 29.461C364.431 27.8887 365.672 26.6473 367.245 26.6473C368.817 26.6473 370.058 27.9714 370.058 29.461Z" fill="white"/>
</g>
<g clip-path="url(#clip1)">
<path d="M482.523 142.754C482.523 142.754 482.854 161.456 483.93 167.911C485.006 174.366 484.509 177.925 491.295 179.994C497.999 182.063 506.688 172.959 510.164 161.125L482.523 142.754Z" fill="url(#paint2_linear)"/>
<path d="M417.064 80.0248C417.064 80.0248 415.905 94.2587 426.829 102.286C437.752 110.231 489.309 147.553 501.557 156.243C513.474 164.684 550.383 189.014 561.638 200.352C572.892 211.772 582.823 221.785 587.126 228.571C591.43 235.274 612.201 214.006 597.471 194.807C582.74 175.608 540.287 115.941 535.818 116.437C531.349 116.934 440.566 75.0594 438.663 75.0594C436.842 75.1422 419.629 71.5837 419.629 71.5837L417.064 80.0248Z" fill="#EFE8DF"/>
<path d="M652.007 303.134C649.69 289.562 628.173 272.846 623.208 264.901C618.243 256.956 629.249 235.936 629.332 208.793C629.415 179.58 606.409 136.464 606.409 136.464C606.409 136.464 651.262 125.292 629.746 111.389C608.229 97.4862 582.906 102.203 582.906 102.203C551.21 52.5499 519.598 44.6053 497.254 42.4537C471.434 39.971 454.883 63.0598 454.883 63.0598C444.125 55.1981 428.98 57.598 421.119 68.3562C417.56 74.0664 420.539 79.1972 428.401 85.0729C447.849 99.6379 483.434 112.465 496.674 114.534C509.005 116.437 519.846 120.079 522.991 122.644C533.252 131.085 528.866 137.54 528.949 149.209C529.032 160.877 540.783 192.655 556.59 193.152C572.396 193.566 566.603 178.504 566.603 178.504C593.664 206.393 583.485 223.523 583.485 223.523C593.499 238.833 603.181 249.508 584.313 262.998C565.444 276.57 551.293 301.644 547.486 314.306C543.597 326.885 550.383 328.954 563.045 323.658C575.706 318.361 597.305 292.79 597.305 292.79C597.305 292.79 628.256 317.865 640.835 321.754C653.414 325.644 654.324 316.706 652.007 303.134Z" fill="url(#paint3_linear)"/>
<path d="M500.564 105.017C499.571 108.327 496.095 110.148 492.785 109.155C489.475 108.162 487.654 104.686 488.647 101.376C489.64 98.0655 493.116 96.2449 496.426 97.2379C499.736 98.3138 501.557 101.789 500.564 105.017Z" fill="#211D1D"/>
</g>
<defs>
<linearGradient id="paint0_linear" x1="304.999" y1="461.736" x2="304.999" y2="95.4952" gradientUnits="userSpaceOnUse">
<stop stop-color="#92E476"/>
<stop offset="0.6256" stop-color="#30C1A8"/>
<stop offset="1" stop-color="#85C28C"/>
</linearGradient>
<linearGradient id="paint1_linear" x1="322.305" y1="-1.26641" x2="350.98" y2="45.3304" gradientUnits="userSpaceOnUse">
<stop stop-color="#FFADD7"/>
<stop offset="1" stop-color="#BF6EAB"/>
</linearGradient>
<linearGradient id="paint2_linear" x1="449.312" y1="168.327" x2="548.689" y2="150.985" gradientUnits="userSpaceOnUse">
<stop stop-color="#66ACA8"/>
<stop offset="1" stop-color="#0085AB"/>
</linearGradient>
<linearGradient id="paint3_linear" x1="496.337" y1="17.0406" x2="577.867" y2="223.772" gradientUnits="userSpaceOnUse">
<stop stop-color="#6EC3BB"/>
<stop offset="1" stop-color="#0085AC"/>
</linearGradient>
<clipPath id="clip0">
<rect x="311.136" width="62.1495" height="62.1495" fill="white"/>
</clipPath>
<clipPath id="clip1">
<rect x="417.064" y="42.2054" width="235.936" height="284.183" fill="white"/>
</clipPath>
</defs>
</svg>
