<svg width="50" height="51" viewBox="0 0 50 51" fill="none" xmlns="http://www.w3.org/2000/svg">
<g clip-path="url(#clip0)">
<path d="M25 50.4041C38.8071 50.4041 50 39.2112 50 25.4041C50 11.5969 38.8071 0.404053 25 0.404053C11.1929 0.404053 0 11.5969 0 25.4041C0 39.2112 11.1929 50.4041 25 50.4041Z" fill="#3B5998"/>
<path d="M31.285 26.3828H26.824V42.7256H20.0653V26.3828H16.8509V20.6393H20.0653V16.9225C20.0653 14.2647 21.3278 10.1028 26.8842 10.1028L31.8906 10.1237V15.6988H28.2581C27.6623 15.6988 26.8245 15.9965 26.8245 17.2644V20.6446H31.8755L31.285 26.3828Z" fill="white"/>
</g>
<defs>
<clipPath id="clip0">
<rect y="0.404053" width="50" height="50" fill="white"/>
</clipPath>
</defs>
</svg>
