<svg width="120" height="120" viewBox="0 0 120 120" fill="none" xmlns="http://www.w3.org/2000/svg">
<circle cx="60" cy="60" r="60" fill="white"/>
<g clip-path="url(#clip0)">
<path d="M18.4767 68.5351V51.0591H22.5624C23.9706 50.9748 25.3654 51.3724 26.5169 52.1863C27.0411 52.6703 27.44 53.274 27.6796 53.9457C27.9191 54.6173 27.9921 55.337 27.8924 56.043C27.7926 56.749 27.5231 57.4204 27.1068 57.9996C26.6905 58.5788 26.1398 59.0487 25.502 59.3689C26.62 59.4764 27.6642 59.9746 28.4504 60.7758C29.1581 61.6065 29.5239 62.6745 29.474 63.7642C29.5004 64.6578 29.2696 65.5403 28.8091 66.3069C28.352 67.0251 27.6911 67.5909 26.9106 67.9322C25.993 68.3363 25.0001 68.5418 23.9972 68.5351H18.4767ZM20.6202 58.7048H22.125C23.105 58.7522 24.0726 58.469 24.8721 57.9009C25.1731 57.622 25.4133 57.284 25.5775 56.9082C25.7418 56.5323 25.8265 56.1266 25.8265 55.7164C25.8265 55.3063 25.7418 54.9006 25.5775 54.5247C25.4133 54.1488 25.1731 53.8109 24.8721 53.5319C24.0535 52.981 23.075 52.7167 22.09 52.7805H20.6202V58.7048ZM20.6202 66.8225H23.3061C24.3457 66.891 25.3781 66.6078 26.2369 66.0186C26.5768 65.7475 26.8464 65.3989 27.023 65.0019C27.1996 64.605 27.2781 64.1715 27.2518 63.7379C27.2755 63.2962 27.1953 62.8551 27.0175 62.4499C26.8398 62.0448 26.5694 61.6869 26.2282 61.4049C25.3829 60.7884 24.3515 60.48 23.3061 60.5311H20.6202V66.8225Z" fill="#68A64E"/>
<path d="M32.5361 68.5351V50.3163H34.5921V68.5351H32.5361Z" fill="#E95E8E"/>
<path d="M39.9463 55.4893C39.7189 55.4892 39.4955 55.4289 39.2989 55.3145C39.1051 55.1987 38.9445 55.0349 38.8326 54.839C38.7207 54.643 38.6614 54.4216 38.6603 54.196C38.6579 53.9713 38.7185 53.7503 38.8352 53.5582C38.9481 53.3671 39.1076 53.2077 39.2989 53.095C39.4955 52.9806 39.7189 52.9203 39.9463 52.9203C40.1714 52.9179 40.3926 52.9785 40.585 53.095C40.7763 53.2077 40.9359 53.3671 41.0487 53.5582C41.1643 53.7476 41.2248 53.9654 41.2237 54.1873C41.2278 54.411 41.1744 54.6321 41.0688 54.8294C40.9631 55.0267 40.8086 55.1937 40.62 55.3145C40.4175 55.4375 40.1832 55.4983 39.9463 55.4893V55.4893ZM38.914 68.5351V57.6738H40.97V68.5351H38.914Z" fill="#FAC343"/>
<path d="M45.3181 68.5351V57.6737H47.3654V59.0718C47.733 58.5456 48.2261 58.1192 48.8002 57.831C49.4844 57.4916 50.2411 57.3237 51.0049 57.3417C51.7672 57.3231 52.5212 57.5038 53.1921 57.866C53.8085 58.2116 54.3057 58.7356 54.6181 59.3689C54.9746 60.097 55.1487 60.9006 55.1256 61.7107V68.5351H53.0609V62.1563C53.1225 61.3069 52.8634 60.4653 52.3347 59.7971C52.0688 59.5141 51.7433 59.2937 51.3817 59.1516C51.0201 59.0096 50.6314 58.9495 50.2437 58.9757C49.7014 58.9601 49.1645 59.0866 48.6864 59.3427C48.2694 59.5692 47.9217 59.9044 47.6803 60.3126C47.4506 60.7177 47.33 61.1753 47.3304 61.6408V68.5351H45.3181Z" fill="#7DC5B3"/>
<path d="M59.255 68.5351V50.3163H61.3023V61.9641L65.5367 57.6738H68.1614L63.1133 62.8379L68.4588 68.5351H65.8342L61.311 63.6506V68.5351H59.255Z" fill="#BACA5A"/>
<path d="M72.5445 55.4893C72.3196 55.4907 72.0986 55.4302 71.9058 55.3145C71.7095 55.2015 71.5465 55.0387 71.4334 54.8426C71.3177 54.6469 71.2572 54.4234 71.2584 54.196C71.2561 53.9713 71.3167 53.7503 71.4334 53.5582C71.5493 53.3665 71.7118 53.2072 71.9058 53.095C72.0986 52.9793 72.3196 52.9189 72.5445 52.9203C72.7695 52.9179 72.9908 52.9785 73.1832 53.095C73.3745 53.2077 73.534 53.3671 73.6469 53.5582C73.7624 53.7476 73.823 53.9654 73.8218 54.1873C73.8222 54.4143 73.7636 54.6376 73.6516 54.8352C73.5397 55.0328 73.3783 55.1979 73.1832 55.3145C72.9908 55.4311 72.7695 55.4916 72.5445 55.4893V55.4893ZM71.5121 68.5351V57.6738H73.5681V68.5351H71.5121Z" fill="#FAC343"/>
<path d="M82.5007 68.8322C81.5403 68.8446 80.5954 68.5905 79.7711 68.0982C78.956 67.6005 78.2886 66.8947 77.8376 66.0535C77.3691 65.1377 77.1248 64.124 77.1248 63.0957C77.1248 62.0673 77.3691 61.0536 77.8376 60.1379C78.2774 59.2829 78.9391 58.5616 79.7536 58.0495C80.596 57.5461 81.5629 57.2888 82.5444 57.3068C83.4058 57.2955 84.2555 57.5062 85.0116 57.9184C85.7314 58.3235 86.3341 58.9074 86.7614 59.6136V50.3076H88.8086V68.5351H86.7876V66.4729C86.3372 67.2016 85.7078 67.8031 84.9591 68.2205C84.2072 68.6354 83.3596 68.8463 82.5007 68.8322ZM83.0519 67.0846C83.7428 67.0948 84.4234 66.9166 85.0204 66.569C85.5883 66.2289 86.0514 65.7392 86.3589 65.1535C86.6927 64.5242 86.8612 63.8208 86.8489 63.1088C86.8611 62.3885 86.6927 61.6765 86.3589 61.0379C86.0514 60.4522 85.5883 59.9624 85.0204 59.6223C84.4207 59.2903 83.7463 59.1161 83.0606 59.1161C82.375 59.1161 81.7006 59.2903 81.1009 59.6223C80.5303 59.9619 80.0642 60.4516 79.7536 61.0379C79.434 61.6769 79.2676 62.3814 79.2676 63.0957C79.2676 63.81 79.434 64.5145 79.7536 65.1535C80.0616 65.7417 80.5283 66.232 81.1009 66.569C81.6926 66.9129 82.3674 67.0882 83.0519 67.0759V67.0846Z" fill="#01A68B"/>
<path d="M96.0614 68.8322C95.2249 68.8493 94.3984 68.6475 93.6642 68.2467C92.9678 67.8556 92.395 67.2774 92.0107 66.5778L92.9906 65.3108C93.3237 65.9 93.7876 66.4052 94.3466 66.7875C94.8626 67.1365 95.4732 67.3195 96.0964 67.3118C96.4685 67.3167 96.8367 67.236 97.1725 67.0759C97.5031 66.9237 97.7801 66.6755 97.9673 66.3638C98.1546 66.0521 98.2435 65.6912 98.2224 65.3283C98.2297 65.0125 98.1277 64.7038 97.9337 64.4545C97.6873 64.2012 97.3888 64.0044 97.0588 63.8777C96.6826 63.703 96.1839 63.5107 95.6415 63.2923C95.1925 63.1075 94.7543 62.8974 94.3291 62.6632C93.9249 62.4475 93.5703 62.1499 93.288 61.7894C93.0061 61.3922 92.8645 60.9126 92.8856 60.4262C92.8729 59.864 93.0416 59.3125 93.3668 58.8534C93.7019 58.3791 94.1623 58.0071 94.6966 57.7786C95.3011 57.5069 95.9585 57.3726 96.6213 57.3854C97.2052 57.3833 97.7832 57.5023 98.3186 57.7349C98.8936 57.9792 99.4231 58.319 99.8846 58.7398L99.0623 59.9806C98.7623 59.619 98.3887 59.3252 97.9663 59.1189C97.544 58.9125 97.0825 58.7981 96.6126 58.7835C96.1433 58.7635 95.6819 58.9089 95.309 59.1942C95.1498 59.318 95.0218 59.4774 94.9352 59.6594C94.8487 59.8415 94.8059 60.0412 94.8103 60.2427C94.8073 60.3987 94.8378 60.5534 94.8996 60.6966C94.9615 60.8398 95.0534 60.9681 95.169 61.0728C95.4287 61.3095 95.7239 61.5041 96.0439 61.6496C96.4201 61.8156 96.8138 61.9729 97.2162 62.1214C97.7603 62.3231 98.2919 62.5565 98.8085 62.8204C99.2323 63.0375 99.5959 63.3557 99.8671 63.7467C100.144 64.2039 100.278 64.7333 100.252 65.2671C100.27 65.94 100.087 66.6029 99.7272 67.172C99.3673 67.7219 98.853 68.1535 98.2486 68.4128C97.5563 68.7017 96.8116 68.8445 96.0614 68.8322V68.8322Z" fill="#545EA6"/>
<path d="M59.3163 8.24281C67.8923 8.24769 76.3304 10.3982 83.8602 14.4981C91.3899 18.5979 97.7714 24.5164 102.422 31.7131L106.796 28.8733C101.677 20.9492 94.6546 14.4306 86.3676 9.91142C78.0807 5.39226 68.7931 3.01628 59.3513 3V3L59.3163 8.24281Z" fill="#A7AFD9"/>
<path d="M102.483 31.7568C107.154 38.9499 109.944 47.1981 110.599 55.7467C111.253 64.2952 109.75 72.8712 106.228 80.6897L111.013 82.8392C114.885 74.2268 116.535 64.7827 115.812 55.3694C115.09 45.9562 112.017 36.8738 106.875 28.9519V28.9519L102.483 31.7568Z" fill="#01A68B"/>
<path d="M67.3127 110.146C58.8372 111.453 50.1687 110.619 42.0992 107.719C34.0297 104.819 26.8165 99.9451 21.1188 93.5433L17.1906 97.0385C23.4728 104.093 31.424 109.463 40.3183 112.659C49.2127 115.855 58.7669 116.775 68.1089 115.336V115.336L67.3127 110.146Z" fill="#BACA5A"/>
<path d="M21.2676 93.753C15.5566 87.3572 11.5411 79.6341 9.58796 71.2893C7.6348 62.9445 7.80622 54.2439 10.0866 45.9823L5.02098 44.5842C2.50762 53.6853 2.31741 63.2704 4.4677 72.4638C6.61799 81.6573 11.0403 90.1662 17.3306 97.2133V97.2133L21.2676 93.753Z" fill="#7DC5B3"/>
<path d="M10.1216 45.9299C13.1343 35.1175 19.6015 25.5844 28.5388 18.7812C37.4761 11.9781 48.3942 8.27756 59.6312 8.24281V3C47.2393 3.02044 35.1948 7.09239 25.3382 14.5937C15.4816 22.0949 8.35492 32.6129 5.04723 44.5405L9.80659 45.8163L10.1216 45.9299Z" fill="#E95E8E"/>
</g>
<defs>
<clipPath id="clip0">
<rect x="3" y="3" width="113" height="113" fill="white"/>
</clipPath>
</defs>
</svg>
