<svg width="1150" height="158" viewBox="0 0 1150 158" fill="none" xmlns="http://www.w3.org/2000/svg">
<path d="M1149.84 34.5625C1149.84 15.4708 1134.73 0 1116.01 0C1104.02 0 1093.51 6.25417 1087.6 15.8C1081.36 6.25417 1071.01 0 1059.02 0C1047.04 0 1036.53 6.25417 1030.62 15.8C1024.54 6.25417 1014.03 0 1002.04 0C990.054 0 979.545 6.25417 973.633 15.8C967.557 6.25417 957.047 0 945.059 0C933.072 0 922.562 6.25417 916.65 15.8C910.574 6.25417 900.064 0 888.241 0C876.253 0 865.743 6.25417 859.832 15.8C853.756 6.25417 843.246 0 831.258 0C819.27 0 808.761 6.25417 802.849 15.8C796.773 6.25417 786.263 0 774.275 0C762.288 0 751.778 6.25417 745.866 15.8C739.79 6.25417 729.28 0 717.293 0C705.305 0 694.795 6.25417 688.883 15.8C682.807 6.25417 672.298 0 660.474 0C648.486 0 637.977 6.25417 632.065 15.8C625.989 6.25417 615.479 0 603.491 0C591.504 0 580.994 6.25417 575.082 15.8C569.006 6.25417 558.496 0 546.509 0C534.521 0 524.011 6.25417 518.099 15.8C512.023 6.25417 501.514 0 489.69 0C477.702 0 467.193 6.25417 461.281 15.8C455.041 6.25417 444.695 0 432.707 0C420.72 0 410.21 6.25417 404.298 15.8C398.222 6.25417 387.712 0 375.725 0C363.737 0 353.227 6.25417 347.315 15.8C341.239 6.25417 330.73 0 318.742 0C306.754 0 296.244 6.25417 290.333 15.8C284.257 6.25417 273.747 0 261.923 0C249.936 0 239.426 6.25417 233.514 15.8C227.274 6.25417 216.928 0 204.941 0C192.953 0 182.443 6.25417 176.532 15.8C170.456 6.25417 159.946 0 147.958 0C135.97 0 125.461 6.25417 119.549 15.8C113.473 6.25417 102.963 0 90.9753 0C78.9876 0 68.4778 6.25417 62.566 15.8C56.4901 6.25417 45.9803 0 34.1568 0C15.4362 0 0 15.4708 0 34.5625C0 36.5375 0.328431 38.5125 0.328431 40.4875V158H1149.67V35.55C1150.33 35.2208 1149.84 34.8917 1149.84 34.5625Z" fill="url(#paint0_linear)"/>
<defs>
<linearGradient id="paint0_linear" x1="574.992" y1="14.1066" x2="574.992" y2="135.49" gradientUnits="userSpaceOnUse">
<stop stop-color="#559162"/>
<stop offset="1" stop-color="#1C8053"/>
</linearGradient>
</defs>
</svg>
