<svg width="1150" height="158" viewBox="0 0 1150 158" fill="none" xmlns="http://www.w3.org/2000/svg">
<path d="M1149.84 34.5985C1149.84 15.487 1134.73 0 1116.01 0C1104.02 0 1093.51 6.26069 1087.6 15.8165C1081.36 6.26069 1071.01 0 1059.02 0C1047.04 0 1036.53 6.26069 1030.62 15.8165C1024.54 6.26069 1014.03 0 1002.04 0C990.054 0 979.545 6.26069 973.633 15.8165C967.557 6.26069 957.047 0 945.059 0C933.072 0 922.562 6.26069 916.65 15.8165C910.574 6.26069 900.064 0 888.241 0C876.253 0 865.743 6.26069 859.832 15.8165C853.756 6.26069 843.246 0 831.258 0C819.27 0 808.761 6.26069 802.849 15.8165C796.773 6.26069 786.263 0 774.275 0C762.288 0 751.778 6.26069 745.866 15.8165C739.79 6.26069 729.28 0 717.293 0C705.305 0 694.795 6.26069 688.883 15.8165C682.807 6.26069 672.298 0 660.474 0C648.486 0 637.977 6.26069 632.065 15.8165C625.989 6.26069 615.479 0 603.491 0C591.504 0 580.994 6.26069 575.082 15.8165C569.006 6.26069 558.496 0 546.509 0C534.521 0 524.011 6.26069 518.099 15.8165C512.023 6.26069 501.514 0 489.69 0C477.702 0 467.193 6.26069 461.281 15.8165C455.041 6.26069 444.695 0 432.707 0C420.72 0 410.21 6.26069 404.298 15.8165C398.222 6.26069 387.712 0 375.725 0C363.737 0 353.227 6.26069 347.315 15.8165C341.239 6.26069 330.73 0 318.742 0C306.754 0 296.244 6.26069 290.333 15.8165C284.257 6.26069 273.747 0 261.923 0C249.936 0 239.426 6.26069 233.514 15.8165C227.274 6.26069 216.928 0 204.941 0C192.953 0 182.443 6.26069 176.532 15.8165C170.456 6.26069 159.946 0 147.958 0C135.97 0 125.461 6.26069 119.549 15.8165C113.473 6.26069 102.963 0 90.9753 0C78.9876 0 68.4778 6.26069 62.566 15.8165C56.4901 6.26069 45.9803 0 34.1568 0C15.4362 0 0 15.487 0 34.5985C0 36.5756 0.328431 38.5527 0.328431 40.5297V158.165H1149.67V35.5871C1150.33 35.2576 1149.84 34.928 1149.84 34.5985Z" fill="url(#paint0_linear)"/>
<defs>
<linearGradient id="paint0_linear" x1="574.992" y1="4.72649" x2="574.992" y2="154.051" gradientUnits="userSpaceOnUse">
<stop stop-color="#9CCD77"/>
<stop offset="1" stop-color="#00B15E"/>
</linearGradient>
</defs>
</svg>
