<svg width="62" height="51" viewBox="0 0 62 51" fill="none" xmlns="http://www.w3.org/2000/svg">
<path d="M61.9 35.4001C61.5 32.6001 60.1 30.3 58.2 28.9C57.4 28.3 56.7 27.9 55.9 27.6C55.6 27.5 55.3 27.4 55 27.3C54.9 27.3 54.9 27.3 54.9 27.3C54.8 27.3 54.8 27.3 54.7 27.3C54.6 27.3 54.6 27.3 54.6 27.3L53.7 28C53.8 28.4 53.9 28.9 54 29.4C54.6 33.2 54.6 36.9 54.6 40.1V40.3C54.6 42.1 54.5 43.9001 54.4 45.7001C54.4 45.8001 54.4 45.9 54.4 46L55 46.7001C56.9 46.7001 59 44.5 59.4 44.1C61.5 41.6 62.4 38.5001 61.9 35.4001Z" fill="#FDC02C"/>
<path d="M8 34.7999C8 32.7999 8.1 30.7999 8.3 28.8999C8.3 28.7999 8.3 28.6999 8.3 28.6999L7.7 27.8999C5.6 27.8999 3.4 30.1999 3 30.5999C0.7 32.9999 -0.3 36.2999 0.2 39.5999C0.7 42.4999 2.1 44.9999 4.2 46.4999C5 47.2999 5.7 47.6999 6.5 47.9999C6.8 48.0999 7.1 48.1999 7.4 48.2999H7.5C7.6 48.2999 7.6 48.2999 7.7 48.2999V47.9999V48.3999H7.8L8.1 48.0999V48.4999V48.0999L8.7 47.5999C8.6 47.0999 8.5 46.5999 8.4 46.0999C8 42.1999 7.9 38.1999 8 34.7999Z" fill="#FDC02C"/>
<path d="M52.9 38.5999V37.7C52.9 34.8 52.9 31.4999 52.2 28.2999C52.2 28.1999 52.2 28.1 52.1 27.9C51.9 26.8 51.6 25.3 50.6 24.6C50 24.2 49.4 24.2 48.8 24.2C48.6 24.2 48.5 24.2 48.3 24.2H48.1C45.6 24.3 45.2 27.3 45.1 28.9V29C44.8 31.8 44.8 34.5999 44.8 37.0999C44.8 39.7999 44.9 42.5 45.3 45.2C45.3 45.3 45.3 45.5 45.4 45.7C45.6 47.3 46 49.9 48.2 49.9C48.4 49.9 48.6 49.9 48.8 49.9C49 49.9 49.3 49.9 49.5 49.9C49.9 49.9 50.2 49.8999 50.5 49.7999C52 49.3999 52.3 47.6 52.4 46.7C52.9 44.2 52.9 41.3999 52.9 38.5999Z" fill="#78C3D1"/>
<path d="M16.7 29C16.7 28.9 16.7 28.7 16.6 28.5C16.4 26.9 16 24.3 13.8 24.3C13.6 24.3 13.4 24.3 13.2 24.3C13 24.3 12.7 24.3 12.5 24.3C12.1 24.3 11.8 24.3 11.5 24.4C10 24.8 9.7 26.6 9.6 27.5C9.1 30.2 9.1 33.1 9.1 35.8V36.7001C9.1 39.6001 9.1 42.9 9.8 46.1C9.8 46.2 9.8 46.3 9.9 46.5C10.1 47.6 10.4 49.1 11.4 49.8C12 50.2 12.6 50.2001 13.2 50.2001C13.4 50.2001 13.5 50.2001 13.7 50.2001H13.9C16.4 50.2001 16.8 47.2 16.9 45.5V45.4001C17.2 42.6001 17.2 39.7 17.2 37.3C17.2 34.5 17.1 31.7 16.7 29Z" fill="#78C3D1"/>
<path d="M56.4 23.3C56.2 11.1 44.7 0.3 31.7 0C31.5 0 31.4 0 31.2 0C24.3 0 17.5 2.8 12.5 7.6C7.5 12.4 4.7 18.9 4.9 25.3C4.9 25.5 5 25.7 5.2 25.8C5.3 25.9 5.4 25.9 5.5 25.9C5.6 25.9 5.7 25.9 5.8 25.8C6.7 25.4 7.6 25.1 8.3 25.1H8.4H8.5C9 25.2 9.4 25 9.4 24.7C9.5 24.1 9.7 23.6 10 23.3C10.3 22.8 10.7 22.5 11.3 22.2C11.6 22.1 11.7 21.8 11.7 21.5V21.4C13.5 13.1 21.9 6.6 30.8 6.6C31.4 6.6 32 6.6 32.6 6.7C41.2 7.6 48.4 13.9 49.9 21.6C49.9 21.8 50.1 22 50.4 22.1C51.3 22.3 52 22.9 52.4 23.9C52.5 24.1 52.8 24.3 53.1 24.3C53.4 24.3 53.6 24.1 53.7 23.9C53.7 23.8 53.8 23.8 53.9 23.8C54.4 23.8 55 23.9 55.6 24.1C55.7 24.1 55.8 24.1 55.8 24.1C56.1 24 56.4 23.7 56.4 23.3C56.4 23.3 56.4 23.4 56.4 23.3Z" fill="#CE2E27"/>
</svg>
