<svg width="51" height="56" viewBox="0 0 51 56" fill="none" xmlns="http://www.w3.org/2000/svg">
<path d="M49.7 8C47.8 3.7 42.3 0 37.5 0C35 0 33 1 31.8 3C31.6 3.3 31.7 3.6 31.9 3.9C35.1 7.3 39 10.1 42.7 12.8C44.1 13.8 45.6 14.9 47.1 16C47.2 16.1 47.4 16.2 47.6 16.2C47.8 16.2 48 16.1 48.2 16C50.4 13.7 51 10.9 49.7 8Z" fill="#D55423"/>
<path d="M5.8 34.4C6 34.5 6.7 35.1 8.2 36.4C8.3 36.5 9.1 36.4 9.1 36.4C9.1 36.4 9.3 36.2 9.4 36C9.4 36 17.8 26.2 21.7 21.4C25.4 16.8 29.2 12.1 33.3 7.59995C33.6 7.29995 33.6 6.79995 33.3 6.59995C32.6 5.89995 31.9 5.19995 31.2 4.39995C31.1 4.19995 30.9 4.19995 30.7 4.19995C30.5 4.19995 30.3 4.29995 30.2 4.39995C25.7 9.19995 21.5 14.4 17.4 19.4C13.6 24 9.7 28.7999 5.6 33.2999C5.4 33.4999 5.4 33.7 5.4 34C5.4 34.1 5.6 34.3 5.8 34.4Z" fill="#78C3D1"/>
<path d="M46.6 15.2C45.6 14.4 38.6 8.59995 36.9 7.09995C36.6 6.79995 36.1 6.79995 35.8 7.19995C31.5 11.9 27.5 16.9 23.6 21.7C19.5 26.7 15.3 32 10.9 36.8C10.7 36.9 10.6 37.2 10.6 37.4C10.6 37.6 10.7 37.8 10.9 38C12.4 39.2 20.4 46 20.5 46L20.6 46.1C20.7 46.2 20.8 46.2 21 46.2C21.2 46.2 21.4 46.1 21.6 45.9C26.1 40.9 42.7 21.8 47.3 16.6C47.4 16.4 47.5 16.2 47.5 16C47.4 15.9 46.8 15.4 46.6 15.2Z" fill="#78C3D1"/>
<path d="M1 46.8L8 52.6L0 55.4001L1 46.8Z" fill="#78C3D1"/>
<path d="M17.4 45.7999C17.2 45.5999 17 45.5 16.8 45.4C16.7 45.3 7.2 37.4 5.9 36.2C5.8 36.1 5.7 36.1 5.6 36C5.1 35.8 4.8 35.7 4.4 35.7C3.7 35.7 3.2 36 2.8 36.7C2.8 36.7 2.8 36.7999 2.7 36.7999C2.6 36.9999 2.1 39.3 1.9 40.4C1.6 42 1.3 44.5 1 46.5C1 46.8 1.1 47.1 1.3 47.2C1.4 47.3 1.9 47.7999 2.3 48.2999C3.4 49.4999 7.1 52.0999 7.1 52.0999C7.2 52.3999 7.5 52.5 7.8 52.5C7.9 52.5 8 52.4 8 52.5C9 52.7 17 49.3 17.1 49.2C17.5 49.1 18.8 48.7 18.8 47.4C18.8 47.3 18.8 47.1999 18.7 47.0999C18.7 46.8999 18.4 46.5999 17.4 45.7999Z" fill="#FDC02C"/>
</svg>
