<svg width="62" height="45" viewBox="0 0 62 45" fill="none" xmlns="http://www.w3.org/2000/svg">
<path d="M52.6 39.6H8.6C6.1 39.6 4 37.6 4 35V8.69998C4 6.19998 6 4.09998 8.6 4.09998H52.6C55.1 4.09998 57.2 6.09998 57.2 8.69998V35C57.1 37.5 55.1 39.6 52.6 39.6Z" fill="#F9F1E9"/>
<path d="M61.1 11.3C61.2 15.4 61.2 19.5 61.2 23.6C61.2 26.6 61.1 29.6 61.1 32.5C61.1 34.4 61.1 36.2 61.1 38.1C61.1 39.5 61.2 41 60.9 42.3C60.3 44.6 57.2 44.6 55.3 44.7C54 44.7 52.7 44.7 51.4 44.7C41.8 44.8 32.2 44.7 22.7 44.6C16.4 44.6 10.1 44.5 3.8 44.4C1.1 44.2 0.7 40.7 0.5 38.6C0.2 35.9 0.2 33.2 0.2 30.5C0.2 25 0.3 19.6 0.3 14.1C0.3 12.4 0.3 10.7 0.2 9.09997C3.57628e-07 6.79997 -0.4 3.39997 1.2 1.39997C2 0.399974 3.4 0.0999741 4.7 0.0999741C6.3 0.0999741 7.9 0.0999741 9.5 0.0999741C12.9 0.0999741 16.2 0.0999741 19.6 0.0999741C31.7 0.0999741 43.8 -0.100026 55.9 0.199974C58.1 0.299974 60.2 0.199974 60.8 2.79997C61.5 5.49997 61 8.59997 61.1 11.3ZM58.2 23.1C58.2 18.6 58.1 14.2 58.1 9.69997C58.1 7.49997 58 4.89997 55.8 3.69997C54.1 2.79997 51.5 3.09997 49.6 3.09997C43.8 2.99997 37.9 2.99997 32 2.99997C25.2 2.99997 18.4 2.99997 11.6 2.99997C9.1 3.09997 6 2.69997 4.2 4.89997C2.7 6.89997 2.9 9.79997 3.1 12.1C3.4 16.7 3.1 21.4 3.1 26C3.1 28.6 3.1 31.2 3.2 33.8C3.3 36.1 3.5 39.3 5.6 40.8C6.3 41.3 7.1 41.5 7.9 41.5C16.2 41.7 24.6 41.7 32.9 41.7C37.6 41.7 42.2 41.7 46.9 41.7C48.3 41.7 49.8 41.7 51.2 41.7C53.2 41.7 55.8 41.6 57.2 40C57.8 39.3 58 38.5 58.1 37.6C58.3 35.9 58.2 34.1 58.2 32.4C58.2 29.3 58.2 26.2 58.2 23.1Z" fill="#FDC02C"/>
<path d="M56.9 12.5C52.4 12.6 47.8 8.59995 48.7 4.19995C50.1 4.19995 51.5 4.29995 52.9 4.29995C54.2 4.29995 55.6 4.39995 56.3 5.59995C57.1 6.89995 56.9 8.69995 56.9 10.1C56.9 10.9 56.9 11.7 56.9 12.5Z" fill="#F4CB3A"/>
<path d="M53.2 14.7C53.7 15 53.8 15.5 53.5 16C53.5 16 53.5 16.1 53.4 16.1C53.4 16.2 53.4 16.2 53.3 16.3C53.2 16.5 53.1 16.7 53 16.9C52.8 17.4 52.1 17.5 51.7 17.2C51.2 16.9 51.1 16.4 51.4 15.9C51.4 15.9 51.4 15.8 51.5 15.8C51.5 15.7 51.5 15.7 51.6 15.6C51.7 15.4 51.8 15.2 51.9 15C52.1 14.6 52.8 14.5 53.2 14.7Z" fill="#F4CB3A"/>
<path d="M49.3 11.3999C49.7 11.7999 49.7 12.3999 49.3 12.7999C48.9 13.1999 48.4 13.4999 47.9 13.6999C47.4 13.8999 46.9 13.4999 46.7 12.9999C46.6 12.4999 46.9 11.9999 47.4 11.7999C47.4 11.7999 47.4 11.7999 47.5 11.7999C47.6 11.7999 47.7 11.6999 47.8 11.5999C47.8 11.5999 47.9 11.5999 47.9 11.4999L48 11.3999C48.4 11.0999 49 11.0999 49.3 11.3999Z" fill="#F4CB3A"/>
<path d="M45.3 8.29993C45.2 8.29993 45.2 8.39993 45.3 8.29993V8.29993ZM45.3 8.29993C45.2 8.29993 45.2 8.29993 45.1 8.29993C44.9 8.29993 44.7 8.39993 44.4 8.39993C43.9 8.39993 43.4 7.99993 43.4 7.39993C43.4 6.89993 43.8 6.49993 44.4 6.39993H44.5C44.6 6.39993 44.6 6.39993 44.7 6.39993C44.9 6.39993 45.1 6.29993 45.3 6.29993C45.8 6.29993 46.3 6.69993 46.3 7.29993C46.3 7.89993 45.9 8.29993 45.3 8.29993Z" fill="#F4CB3A"/>
<path d="M18.8 24.8L12 25.6L11 29.2L8.1 29.6L12.6 14.2L15.3 13.9L23.4 27.7L20.6 28L18.8 24.8ZM12.6 23.5L17.7 22.9L14.4 17H14.3L12.6 23.5Z" fill="#F87506"/>
<path d="M24.7 29.8V15.1H30.5C32.4 15.1 33.9 15.4 35 16.1C36.1 16.8 36.6 17.8 36.6 19.1C36.6 19.8 36.4 20.4 35.9 20.9C35.4 21.4 34.8 21.8 34 22.1C35 22.3 35.8 22.7 36.4 23.4C37 24 37.2 24.8 37.2 25.7C37.2 27.1 36.7 28.1 35.6 28.8C34.5 29.5 33.1 29.9 31.2 29.9H24.7V29.8ZM27.6 21.3H30.8C31.7 21.3 32.4 21.1 32.9 20.8C33.4 20.4 33.7 19.9 33.7 19.3C33.7 18.6 33.4 18 32.9 17.7C32.3 17.3 31.5 17.2 30.5 17.2H27.6V21.3ZM27.6 23.1V27.8H31.3C32.3 27.8 33.1 27.6 33.6 27.2C34.1 26.8 34.4 26.3 34.4 25.5C34.4 24.7 34.2 24.1 33.7 23.7C33.2 23.3 32.5 23.1 31.6 23.1H27.6V23.1Z" fill="#6B6B6B"/>
<path d="M53.5 21.8C54 23.3 53.8 24.6 52.9 25.8C52 27 50.7 27.9 48.7 28.5C46.8 29.1 45 29 43.5 28.3C41.9 27.6 40.9 26.3 40.4 24.6L39.6 21.9C39.1 20.2 39.3 18.6 40.1 17.1C41 15.6 42.4 14.6 44.3 14C46.3 13.4 48 13.4 49.4 13.9C50.8 14.4 51.7 15.4 52.1 16.9V17L49.4 17.8C49.1 16.9 48.6 16.2 47.8 15.9C47 15.6 46.1 15.6 44.9 15.9C43.8 16.2 43 16.9 42.5 17.9C42.1 18.9 42 19.9 42.4 21.1L43.2 23.8C43.6 25 44.2 25.8 45.1 26.4C46 27 47 27.1 48.2 26.7C49.4 26.4 50.1 25.8 50.6 25.1C51 24.4 51.1 23.6 50.8 22.6L53.5 21.8Z" fill="#198B99"/>
</svg>
