<svg width="65" height="60" viewBox="0 0 65 60" fill="none" xmlns="http://www.w3.org/2000/svg">
<path d="M37.8 47.7L31.3 59.7L27.2 48.7999L37.8 47.7Z" fill="#F16545"/>
<path d="M53.9 29.9C53.9 40.7 44.3 49.4 32.4 49.4C20.5 49.4 11 40.7 11 29.9C11 19.1 20.6 10.4 32.5 10.4C44.4 10.4 53.9 19.1 53.9 29.9Z" fill="#FDC02C"/>
<path d="M42.3 29.1C42.3 28.9 42.2 28.7 42.2 28.5C42.1 28.2 41.9 28.1 41.7 28.2C41.5 28.2 41.3 28.3 41.2 28.5C40 32.1 35.2 33.2 31.7 33.2C30 33.2 28.3 32.9 26.7 32.4C25.2 32 23.4 31.1 23 29.6V29.5C22.9 29 22.1 28.9 22 29.4C21.3 32.4 21.8 35.7 23.8 38.1C25.2 39.8 27.1 41 29.2 41.6C29.3 41.7 29.4 41.7 29.6 41.7C30.5 41.9 31.5 42.1 32.5 42.1C35.7 42.2 38.8 41 40.7 38.4C42.5 35.8 42.9 32.2 42.3 29.1Z" fill="#FFFFE0"/>
<path d="M22.8 24.7C22.8 24.7 24.4 18.3 27.3 24.7" stroke="black" stroke-width="2" stroke-miterlimit="10" stroke-linecap="round" stroke-linejoin="round"/>
<path d="M38.6 24.7C38.6 24.7 40.2 18.3 43.1 24.7" stroke="black" stroke-width="2" stroke-miterlimit="10" stroke-linecap="round" stroke-linejoin="round"/>
<path d="M12.5 23.2L7.1 11.4L18.4 14.8L12.5 23.2Z" fill="#F16545"/>
<path d="M18.4 14.9L19.8 0.699951L29.1 11.1L18.4 14.9Z" fill="#F16545"/>
<path d="M28.3 10.8L35.6 0L38.6 11.5L28.3 10.8Z" fill="#F16545"/>
<path d="M38.4 10.8L50.1 5L47 16.5L38.4 10.8Z" fill="#F16545"/>
<path d="M46.8 16L59.8 15.1L52.6 24.5L46.8 16Z" fill="#F16545"/>
<path d="M27.1 49L15.8 55.6L18.1 43.9L27.1 49Z" fill="#F16545"/>
<path d="M18 44.4L4 43.7L12.3 35.1L18 44.4Z" fill="#F16545"/>
<path d="M11.9 34.7L0 28.5L11.7 24.1L11.9 34.7Z" fill="#F16545"/>
<path d="M53.1 25L64.2 31.6L52.9 35.2L53.1 25Z" fill="#F16545"/>
<path d="M52.6 35.1L58.9 46.5L47.3 43.9L52.6 35.1Z" fill="#F16545"/>
<path d="M47.3 44.4L45 57.2L37.7 47.9L47.3 44.4Z" fill="#F16545"/>
</svg>
