<svg width="50" height="51" viewBox="0 0 50 51" fill="none" xmlns="http://www.w3.org/2000/svg">
<circle cx="25" cy="25.4041" r="25" fill="white"/>
<g clip-path="url(#clip0)">
<path d="M29.7852 25.4041C29.7852 28.0469 27.6428 30.1892 25 30.1892C22.3572 30.1892 20.2148 28.0469 20.2148 25.4041C20.2148 22.7612 22.3572 20.6189 25 20.6189C27.6428 20.6189 29.7852 22.7612 29.7852 25.4041Z" fill="#D50060"/>
<path d="M36.1908 16.9376C35.9608 16.3143 35.5938 15.7501 35.117 15.287C34.6539 14.8102 34.09 14.4432 33.4663 14.2132C32.9605 14.0167 32.2006 13.7829 30.801 13.7192C29.287 13.6501 28.833 13.6353 25 13.6353C21.1666 13.6353 20.7127 13.6497 19.199 13.7188C17.7994 13.7829 17.0391 14.0167 16.5337 14.2132C15.91 14.4432 15.3458 14.8102 14.883 15.287C14.4062 15.7501 14.0392 16.3139 13.8088 16.9376C13.6124 17.4435 13.3785 18.2037 13.3148 19.6033C13.2458 21.117 13.2309 21.571 13.2309 25.4044C13.2309 29.2374 13.2458 29.6913 13.3148 31.2054C13.3785 32.605 13.6124 33.3649 13.8088 33.8707C14.0392 34.4944 14.4058 35.0582 14.8827 35.5213C15.3458 35.9982 15.9096 36.3651 16.5333 36.5952C17.0391 36.792 17.7994 37.0258 19.199 37.0895C20.7127 37.1586 21.1662 37.1731 24.9996 37.1731C28.8334 37.1731 29.2873 37.1586 30.8006 37.0895C32.2002 37.0258 32.9605 36.792 33.4663 36.5952C34.7183 36.1122 35.7079 35.1227 36.1908 33.8707C36.3873 33.3649 36.6211 32.605 36.6852 31.2054C36.7542 29.6913 36.7687 29.2374 36.7687 25.4044C36.7687 21.571 36.7542 21.117 36.6852 19.6033C36.6215 18.2037 36.3876 17.4435 36.1908 16.9376ZM25 32.7755C20.9286 32.7755 17.6281 29.4754 17.6281 25.404C17.6281 21.3326 20.9286 18.0325 25 18.0325C29.071 18.0325 32.3715 21.3326 32.3715 25.404C32.3715 29.4754 29.071 32.7755 25 32.7755ZM32.663 19.4637C31.7116 19.4637 30.9402 18.6924 30.9402 17.741C30.9402 16.7896 31.7116 16.0183 32.663 16.0183C33.6143 16.0183 34.3857 16.7896 34.3857 17.741C34.3853 18.6924 33.6143 19.4637 32.663 19.4637Z" fill="#D50060"/>
<path d="M25 0.404053C11.195 0.404053 0 11.599 0 25.4041C0 39.2091 11.195 50.4041 25 50.4041C38.805 50.4041 50 39.2091 50 25.4041C50 11.599 38.805 0.404053 25 0.404053ZM39.2689 31.3226C39.1994 32.8507 38.9565 33.894 38.6017 34.8073C37.8559 36.7356 36.3316 38.26 34.4032 39.0057C33.4904 39.3605 32.4467 39.6031 30.9189 39.6729C29.388 39.7427 28.899 39.7595 25.0004 39.7595C21.1014 39.7595 20.6127 39.7427 19.0815 39.6729C17.5537 39.6031 16.51 39.3605 15.5972 39.0057C14.6389 38.6452 13.7714 38.0803 13.0543 37.3498C12.3241 36.633 11.7592 35.7652 11.3987 34.8073C11.0439 33.8944 10.8009 32.8507 10.7315 31.3229C10.6609 29.7917 10.6445 29.3027 10.6445 25.4041C10.6445 21.5054 10.6609 21.0164 10.7311 19.4855C10.8006 17.9574 11.0432 16.9141 11.3979 16.0008C11.7584 15.043 12.3238 14.1751 13.0543 13.4583C13.7711 12.7278 14.6389 12.1629 15.5968 11.8024C16.51 11.4476 17.5533 11.205 19.0815 11.1352C20.6123 11.0654 21.1014 11.0486 25 11.0486C28.8986 11.0486 29.3877 11.0654 30.9185 11.1356C32.4467 11.205 33.49 11.4476 34.4032 11.802C35.3611 12.1625 36.2289 12.7278 36.9461 13.4583C37.6762 14.1755 38.2416 15.043 38.6017 16.0008C38.9568 16.9141 39.1994 17.9574 39.2693 19.4855C39.3391 21.0164 39.3555 21.5054 39.3555 25.4041C39.3555 29.3027 39.3391 29.7917 39.2689 31.3226Z" fill="#D50060"/>
</g>
<defs>
<clipPath id="clip0">
<rect y="0.404053" width="50" height="50" fill="white"/>
</clipPath>
</defs>
</svg>
