<svg width="130" height="130" viewBox="0 0 130 130" fill="none" xmlns="http://www.w3.org/2000/svg">
<path d="M17.69 75V55H22.36C23.9695 54.9035 25.5639 55.3586 26.88 56.29C27.4792 56.844 27.9352 57.5348 28.209 58.3035C28.4828 59.0722 28.5662 59.8958 28.4522 60.7037C28.3382 61.5117 28.0301 62.28 27.5543 62.9429C27.0784 63.6058 26.449 64.1435 25.72 64.51C26.9979 64.633 28.1914 65.2032 29.09 66.12C29.8989 67.0708 30.3171 68.293 30.26 69.54C30.2901 70.5627 30.0264 71.5726 29.5 72.45C28.9776 73.2719 28.2221 73.9194 27.33 74.31C26.2811 74.7725 25.1463 75.0076 24 75H17.69ZM20.14 63.75H21.86C22.9802 63.8042 24.0861 63.4802 25 62.83C25.3441 62.5108 25.6186 62.124 25.8063 61.6938C25.994 61.2637 26.0909 60.7994 26.0909 60.33C26.0909 59.8607 25.994 59.3964 25.8063 58.9662C25.6186 58.536 25.3441 58.1492 25 57.83C24.0643 57.1995 22.9459 56.897 21.82 56.97H20.14V63.75ZM20.14 73.04H23.21C24.3983 73.1184 25.5784 72.7943 26.56 72.12C26.9484 71.8098 27.2566 71.4108 27.4585 70.9566C27.6604 70.5023 27.7501 70.0062 27.72 69.51C27.7471 69.0045 27.6554 68.4997 27.4522 68.036C27.2491 67.5723 26.9401 67.1627 26.55 66.84C25.5838 66.1345 24.4049 65.7815 23.21 65.84H20.14V73.04Z" fill="#68A64E"/>
<path d="M33.76 75V54.15H36.11V75H33.76Z" fill="#E95E8E"/>
<path d="M42.23 60.07C41.97 60.0699 41.7146 60.0009 41.49 59.87C41.2685 59.7375 41.0849 59.55 40.957 59.3258C40.8291 59.1016 40.7613 58.8481 40.76 58.59C40.7573 58.3328 40.8266 58.0799 40.96 57.86C41.089 57.6413 41.2713 57.459 41.49 57.33C41.7146 57.199 41.97 57.13 42.23 57.13C42.4872 57.1273 42.7401 57.1966 42.96 57.33C43.1787 57.459 43.361 57.6413 43.49 57.86C43.6221 58.0768 43.6913 58.3261 43.69 58.58C43.6947 58.836 43.6337 59.089 43.5129 59.3148C43.3922 59.5406 43.2156 59.7317 43 59.87C42.7685 60.0108 42.5007 60.0804 42.23 60.07ZM41.05 75V62.57H43.4V75H41.05Z" fill="#FAC343"/>
<path d="M48.37 75V62.57H50.71V64.17C51.1302 63.5678 51.6939 63.0798 52.35 62.75C53.1321 62.3616 53.997 62.1694 54.87 62.19C55.7414 62.1687 56.6032 62.3755 57.37 62.79C58.0746 63.1855 58.6429 63.7852 59 64.51C59.4074 65.3432 59.6064 66.2629 59.58 67.19V75H57.22V67.7C57.2904 66.7279 56.9943 65.7647 56.39 65C56.0861 64.6762 55.714 64.4239 55.3007 64.2613C54.8874 64.0988 54.4431 64.03 54 64.06C53.3802 64.0421 52.7665 64.187 52.22 64.48C51.7434 64.7392 51.3459 65.1228 51.07 65.59C50.8075 66.0536 50.6696 66.5773 50.67 67.11V75H48.37Z" fill="#7DC5B3"/>
<path d="M64.3 75V54.15H66.64V67.48L71.48 62.57H74.48L68.71 68.48L74.82 75H71.82L66.65 69.41V75H64.3Z" fill="#BACA5A"/>
<path d="M79.49 60.07C79.2329 60.0716 78.9804 60.0024 78.76 59.87C78.5356 59.7407 78.3493 59.5544 78.22 59.33C78.0877 59.1059 78.0186 58.8502 78.02 58.59C78.0173 58.3328 78.0866 58.0799 78.22 57.86C78.3525 57.6406 78.5382 57.4583 78.76 57.33C78.9804 57.1976 79.2329 57.1284 79.49 57.13C79.7472 57.1273 80.0001 57.1966 80.22 57.33C80.4387 57.459 80.621 57.6413 80.75 57.86C80.8821 58.0768 80.9513 58.3261 80.95 58.58C80.9505 58.8398 80.8834 59.0953 80.7555 59.3215C80.6275 59.5476 80.443 59.7366 80.22 59.87C80.0001 60.0034 79.7472 60.0727 79.49 60.07ZM78.31 75V62.57H80.66V75H78.31Z" fill="#FAC343"/>
<path d="M90.87 75.34C89.7723 75.3542 88.6922 75.0634 87.75 74.5C86.8184 73.9304 86.0555 73.1227 85.54 72.16C85.0046 71.112 84.7254 69.9519 84.7254 68.775C84.7254 67.5981 85.0046 66.438 85.54 65.39C86.0427 64.4115 86.7991 63.5861 87.73 63C88.693 62.424 89.7981 62.1295 90.92 62.15C91.9045 62.1372 92.8758 62.3783 93.74 62.85C94.5627 63.3136 95.2516 63.9818 95.74 64.79V54.14H98.08V75H95.77V72.64C95.2552 73.4739 94.5357 74.1623 93.68 74.64C92.8206 75.1148 91.8518 75.3562 90.87 75.34ZM91.5 73.34C92.2897 73.3517 93.0677 73.1477 93.75 72.75C94.3991 72.3608 94.9285 71.8003 95.28 71.13C95.6615 70.4099 95.8542 69.6048 95.84 68.79C95.854 67.9657 95.6615 67.1509 95.28 66.42C94.9285 65.7497 94.3991 65.1892 93.75 64.8C93.0646 64.42 92.2937 64.2207 91.51 64.2207C90.7263 64.2207 89.9555 64.42 89.27 64.8C88.6179 65.1886 88.0851 65.749 87.73 66.42C87.3647 67.1513 87.1746 67.9576 87.1746 68.775C87.1746 69.5925 87.3647 70.3987 87.73 71.13C88.0821 71.8032 88.6156 72.3643 89.27 72.75C89.9463 73.1436 90.7176 73.3442 91.5 73.33V73.34Z" fill="#01A68B"/>
<path d="M106.37 75.34C105.414 75.3596 104.469 75.1286 103.63 74.67C102.834 74.2223 102.179 73.5607 101.74 72.76L102.86 71.31C103.241 71.9843 103.771 72.5624 104.41 73C105 73.3994 105.698 73.6088 106.41 73.6C106.835 73.6056 107.256 73.5132 107.64 73.33C108.018 73.1558 108.334 72.8719 108.549 72.5151C108.763 72.1583 108.864 71.7454 108.84 71.33C108.848 70.9686 108.732 70.6154 108.51 70.33C108.228 70.0402 107.887 69.815 107.51 69.67C107.08 69.47 106.51 69.25 105.89 69C105.377 68.7885 104.876 68.5481 104.39 68.28C103.928 68.0332 103.523 67.6926 103.2 67.28C102.878 66.8255 102.716 66.2766 102.74 65.72C102.726 65.0765 102.918 64.4455 103.29 63.92C103.673 63.3773 104.199 62.9515 104.81 62.69C105.501 62.379 106.252 62.2254 107.01 62.24C107.677 62.2376 108.338 62.3738 108.95 62.64C109.607 62.9196 110.212 63.3084 110.74 63.79L109.8 65.21C109.457 64.7962 109.03 64.46 108.547 64.2238C108.065 63.9876 107.537 63.8568 107 63.84C106.464 63.8172 105.936 63.9835 105.51 64.31C105.328 64.4518 105.182 64.6341 105.083 64.8425C104.984 65.0508 104.935 65.2794 104.94 65.51C104.937 65.6884 104.971 65.8655 105.042 66.0294C105.113 66.1933 105.218 66.3401 105.35 66.46C105.647 66.7308 105.984 66.9535 106.35 67.12C106.78 67.31 107.23 67.49 107.69 67.66C108.312 67.8908 108.92 68.1579 109.51 68.46C109.994 68.7085 110.41 69.0725 110.72 69.52C111.037 70.0432 111.19 70.6491 111.16 71.26C111.18 72.03 110.971 72.7888 110.56 73.44C110.149 74.0693 109.561 74.5633 108.87 74.86C108.079 75.1906 107.228 75.3541 106.37 75.34Z" fill="#545EA6"/>
<path d="M64.37 6C74.1724 6.00559 83.8173 8.46673 92.4239 13.1587C101.03 17.8506 108.325 24.6239 113.64 32.86L118.64 29.61C112.789 20.5415 104.762 13.0814 95.2899 7.9096C85.8179 2.73776 75.2021 0.0186276 64.41 0V0L64.37 6Z" fill="#A7AFD9"/>
<path d="M113.71 32.91C119.049 41.1419 122.238 50.5814 122.986 60.3646C123.734 70.1478 122.016 79.9623 117.99 88.91L123.46 91.37C127.886 81.5137 129.772 70.7056 128.946 59.9329C128.119 49.1601 124.607 38.766 118.73 29.7L113.71 32.91Z" fill="#01A68B"/>
<path d="M73.51 122.62C63.8224 124.117 53.9142 123.162 44.6907 119.843C35.4672 116.524 27.2225 110.946 20.71 103.62L16.22 107.62C23.4006 115.693 32.4889 121.839 42.6552 125.496C52.8215 129.154 63.742 130.207 74.42 128.56L73.51 122.62Z" fill="#BACA5A"/>
<path d="M20.88 103.86C14.3523 96.5405 9.76257 87.702 7.5301 78.152C5.29763 68.602 5.49356 58.6448 8.10001 49.19L2.31001 47.59C-0.562782 58.0056 -0.780202 68.9749 1.6776 79.4961C4.13541 90.0174 9.1901 99.7551 16.38 107.82L20.88 103.86Z" fill="#7DC5B3"/>
<path d="M8.14001 49.13C11.5837 36.7561 18.9757 25.8461 29.1911 18.0604C39.4065 10.2748 51.8859 6.03977 64.73 6V0C50.5659 0.0233955 36.7989 4.68344 25.5327 13.2681C14.2665 21.8527 6.12074 33.8898 2.34001 47.54L7.78001 49L8.14001 49.13Z" fill="#E95E8E"/>
</svg>
