<svg width="50" height="51" viewBox="0 0 50 51" fill="none" xmlns="http://www.w3.org/2000/svg">
<g clip-path="url(#clip0)">
<path d="M25.0008 50.4036C38.8078 50.4036 50.0006 39.2108 50.0006 25.4038C50.0006 11.5968 38.8078 0.404053 25.0008 0.404053C11.1938 0.404053 0.00100708 11.5968 0.00100708 25.4038C0.00100708 39.2108 11.1938 50.4036 25.0008 50.4036Z" fill="#55ACEE"/>
<path d="M40.3135 18.3706C39.2421 18.8456 38.0897 19.1669 36.8811 19.3104C38.1151 18.5711 39.0621 17.4013 39.5091 16.0051C38.3544 16.69 37.075 17.1869 35.7144 17.4548C34.6244 16.2939 33.0713 15.5684 31.3516 15.5684C28.052 15.5684 25.3759 18.2445 25.3759 21.544C25.3759 22.0124 25.4289 22.4683 25.5314 22.9059C20.5652 22.6568 16.1618 20.2779 13.2143 16.6615C12.7 17.5439 12.405 18.5711 12.405 19.6661C12.405 21.7388 13.4607 23.5686 15.0632 24.6399C14.0842 24.6092 13.1621 24.3404 12.3568 23.8917C12.3564 23.9171 12.3564 23.9425 12.3564 23.9674C12.3564 26.8628 14.4171 29.2777 17.1502 29.8263C16.6493 29.9636 16.1203 30.0362 15.5762 30.0362C15.1903 30.0362 14.8164 29.9992 14.4518 29.9297C15.2121 32.3032 17.4185 34.031 20.034 34.0795C17.9885 35.6825 15.4122 36.6376 12.6118 36.6376C12.1305 36.6376 11.6536 36.6095 11.187 36.5538C13.8301 38.2499 16.9719 39.2388 20.3464 39.2388C31.3377 39.2388 37.3486 30.1334 37.3486 22.2361C37.3486 21.9772 37.3428 21.7191 37.3312 21.4633C38.4997 20.6211 39.5127 19.5689 40.3135 18.3706Z" fill="#F1F2F2"/>
</g>
<defs>
<clipPath id="clip0">
<rect y="0.404053" width="50" height="50" fill="white"/>
</clipPath>
</defs>
</svg>
