<svg width="1152" height="152" viewBox="0 0 1152 152" fill="none" xmlns="http://www.w3.org/2000/svg">
<path opacity="0.65" d="M1118.12 31.6802C1106.12 31.6802 1095.7 25.518 1089.62 16.1166C1083.54 25.439 1073.04 31.6802 1061.11 31.6802C1049.11 31.6802 1038.61 25.518 1032.61 16.1166C1026.53 25.439 1016.02 31.6802 1004.1 31.6802C992.099 31.6802 981.597 25.518 975.595 16.1166C969.515 25.439 959.013 31.6802 947.089 31.6802C935.087 31.6802 924.585 25.518 918.584 16.1166C912.503 25.439 902.001 31.6802 890.078 31.6802C878.075 31.6802 867.573 25.518 861.572 16.1166C855.492 25.439 844.99 31.6802 833.066 31.6802C821.064 31.6802 810.561 25.518 804.56 16.1166C798.48 25.439 787.978 31.6802 776.054 31.6802C764.052 31.6802 753.55 25.518 747.548 16.1166C741.468 25.439 730.966 31.6802 719.043 31.6802C707.04 31.6802 696.538 25.518 690.537 16.1166C684.456 25.439 673.954 31.6802 662.031 31.6802C650.028 31.6802 639.526 25.518 633.525 16.1166C627.445 25.439 616.943 31.6802 605.019 31.6802C593.017 31.6802 582.514 25.518 576.513 16.1166C570.433 25.439 559.931 31.6802 548.007 31.6802C536.005 31.6802 525.503 25.518 519.502 16.1166C513.421 25.439 502.919 31.6802 490.996 31.6802C478.993 31.6802 468.491 25.518 462.49 16.1166C456.41 25.439 445.907 31.6802 433.984 31.6802C421.981 31.6802 411.479 25.518 405.478 16.1166C399.398 25.439 388.896 31.6802 376.972 31.6802C364.97 31.6802 354.468 25.518 348.466 16.1166C342.386 25.439 331.884 31.6802 319.961 31.6802C307.958 31.6802 297.456 25.518 291.455 16.1166C285.374 25.439 274.872 31.6802 262.949 31.6802C250.946 31.6802 240.444 25.518 234.443 16.1166C228.363 25.439 217.861 31.6802 205.937 31.6802C193.935 31.6802 183.432 25.518 177.431 16.1166C171.351 25.439 160.849 31.6802 148.925 31.6802C136.923 31.6802 126.421 25.518 120.419 16.1166C114.339 25.439 103.837 31.6802 91.9136 31.6802C79.9112 31.6802 69.409 25.518 63.4078 16.1166C57.3276 25.439 46.9833 31.6802 34.9809 31.6802C15.7138 31.6802 1.10549 17.6967 0 0V89.5H1152V2.21208C1149.79 18.8817 1135.42 31.6802 1118.12 31.6802Z" fill="url(#paint0_linear)"/>
<path d="M1118.2 76.7825C1106.2 76.7825 1095.78 70.6003 1089.7 61.1686C1083.62 70.5211 1073.12 76.7825 1061.19 76.7825C1049.19 76.7825 1038.69 70.6003 1032.69 61.1686C1026.61 70.5211 1016.1 76.7825 1004.18 76.7825C992.178 76.7825 981.675 70.6003 975.674 61.1686C969.594 70.5211 959.092 76.7825 947.168 76.7825C935.166 76.7825 924.664 70.6003 918.663 61.1686C912.582 70.5211 902.08 76.7825 890.157 76.7825C878.154 76.7825 867.652 70.6003 861.651 61.1686C855.571 70.5211 845.068 76.7825 833.145 76.7825C821.142 76.7825 810.64 70.6003 804.639 61.1686C798.559 70.5211 788.057 76.7825 776.133 76.7825C764.131 76.7825 753.629 70.6003 747.627 61.1686C741.547 70.5211 731.045 76.7825 719.122 76.7825C707.119 76.7825 696.617 70.6003 690.616 61.1686C684.535 70.5211 674.033 76.7825 662.11 76.7825C650.107 76.7825 639.605 70.6003 633.604 61.1686C627.524 70.5211 617.022 76.7825 605.098 76.7825C593.096 76.7825 582.593 70.6003 576.592 61.1686C570.512 70.5211 560.01 76.7825 548.086 76.7825C536.084 76.7825 525.582 70.6003 519.581 61.1686C513.5 70.5211 502.998 76.7825 491.075 76.7825C479.072 76.7825 468.57 70.6003 462.569 61.1686C456.489 70.5211 445.986 76.7825 434.063 76.7825C422.06 76.7825 411.558 70.6003 405.557 61.1686C399.477 70.5211 388.975 76.7825 377.051 76.7825C365.049 76.7825 354.547 70.6003 348.545 61.1686C342.465 70.5211 331.963 76.7825 320.039 76.7825C308.037 76.7825 297.535 70.6003 291.534 61.1686C285.453 70.5211 274.951 76.7825 263.028 76.7825C251.025 76.7825 240.523 70.6003 234.522 61.1686C228.442 70.5211 217.94 76.7825 206.016 76.7825C194.014 76.7825 183.511 70.6003 177.51 61.1686C171.43 70.5211 160.928 76.7825 149.004 76.7825C137.002 76.7825 126.5 70.6003 120.498 61.1686C114.418 70.5211 103.916 76.7825 91.9926 76.7825C79.9901 76.7825 69.488 70.6003 63.4867 61.1686C57.4065 70.5211 46.9833 76.7825 35.0598 76.7825C15.7927 76.7825 1.10549 62.7538 0 45V151.832H1152V47.14C1149.79 63.8634 1135.42 76.7825 1118.2 76.7825Z" fill="#39A4E2"/>
<defs>
<linearGradient id="paint0_linear" x1="575.987" y1="170.315" x2="575.987" y2="26.7134" gradientUnits="userSpaceOnUse">
<stop stop-color="#4DE0D1"/>
<stop offset="1" stop-color="#00ABCC"/>
</linearGradient>
</defs>
</svg>
